<svg xmlns="http://www.w3.org/2000/svg" viewBox="0 -4 100 108" x="0px" y="0px"><path d="m89.5,47.54l-4.83-11.57s-.05-.07-.08-.11c-.05-.09-.1-.17-.17-.24-.05-.06-.11-.11-.17-.15-.04-.03-.06-.07-.11-.1l-14.29-8.42c-.6-.35-1.37-.15-1.73.45-.35.6-.15,1.37.45,1.73l12.45,7.34-31.02,18.29-31.02-18.29,12.45-7.34c.6-.35.8-1.13.45-1.73-.35-.6-1.13-.8-1.73-.45l-14.29,8.42s-.07.07-.11.1c-.06.05-.12.1-.17.15-.07.07-.12.15-.17.24-.02.04-.06.07-.08.11l-4.83,11.57c-.67,1.6-.74,3.39-.19,5.04.55,1.65,1.68,3.04,3.17,3.93l1.75,1.03v13.01c0,2.54,1.36,4.91,3.54,6.2l27.57,16.25c1.13.66,2.39,1,3.65,1,0,0,0,0,0,0,0,0,0,0,0,0,1.26,0,2.52-.33,3.65-1l27.57-16.25c2.18-1.29,3.54-3.66,3.54-6.2v-13.01l1.75-1.03c1.5-.88,2.62-2.28,3.17-3.93.55-1.65.48-3.44-.19-5.04Zm-76.67.97l4.27-10.23,31.31,18.46-3.78,9.04c-.52,1.25-1.55,2.21-2.84,2.63-1.28.43-2.68.28-3.85-.41l-23.18-13.67c-2-1.18-2.83-3.68-1.94-5.83Zm7.23,26.06c-1.42-.84-2.3-2.38-2.3-4.02v-11.53l18.91,11.15c1.12.66,2.38,1,3.65,1,.76,0,1.53-.12,2.27-.37,1.97-.66,3.57-2.13,4.37-4.05l1.78-4.25v28.8c-.38-.11-.76-.26-1.11-.47l-27.57-16.25Zm62.18-4.02c0,1.65-.88,3.19-2.3,4.02l-27.57,16.25c-.35.21-.73.36-1.11.47v-28.8l1.78,4.25c.8,1.92,2.39,3.4,4.37,4.05.74.25,1.51.37,2.27.37,1.27,0,2.53-.34,3.65-1l18.91-11.15v11.53Zm2.99-16.21l-23.18,13.67c-1.16.69-2.57.83-3.85.41-1.28-.43-2.32-1.39-2.84-2.63l-3.78-9.04,31.31-18.46,4.27,10.23c.89,2.14.06,4.65-1.94,5.83Z"/><path d="m50,38.46c8.95,0,16.23-7.28,16.23-16.23s-7.28-16.23-16.23-16.23-16.23,7.28-16.23,16.23,7.28,16.23,16.23,16.23Zm0-29.94c7.56,0,13.71,6.15,13.71,13.71s-6.15,13.71-13.71,13.71-13.71-6.15-13.71-13.71,6.15-13.71,13.71-13.71Z"/><path d="m46.71,28.1c.25.25.57.37.89.37s.65-.12.89-.37l8.71-8.71c.49-.49.49-1.29,0-1.78s-1.29-.49-1.78,0l-7.82,7.82-3.03-3.03c-.49-.49-1.29-.49-1.78,0-.49.49-.49,1.29,0,1.78l3.92,3.92Z"/></svg>