<svg xmlns="http://www.w3.org/2000/svg" version="1.1" viewBox="-5.0 -10.0 110.0 135.0">
 <path d="m100 26.871v-0.011719-9.7891c0-5.0508-4.1094-9.1602-9.1562-9.1602h-6.3008l-0.003907-2.0391c0-2.5352-2.0625-4.5938-4.5938-4.5938-2.5352 0-4.5938 2.0625-4.5938 4.5938v2.0391h-10.773v-2.0391c0-2.5352-2.0625-4.5938-4.5938-4.5938-2.5352 0-4.5938 2.0625-4.5938 4.5938v2.0391h-10.777v-2.0391c0-2.5352-2.0625-4.5938-4.5938-4.5938-2.5352 0-4.5938 2.0625-4.5938 4.5938v2.0391h-10.777v-2.0391c0-2.5352-2.0625-4.5938-4.5938-4.5938-2.5352 0-4.5938 2.0625-4.5938 4.5938v2.0391h-6.3008c-5.0508 0-9.1562 4.1094-9.1562 9.1602v9.7812c-0.0039062 0.007813-0.0039062 0.011719-0.0039062 0.019532v0.019531 50.559c0 3.707 2.2109 6.9023 5.3828 8.3438 0.43359 3.2695 2.7773 5.9258 5.8438 6.8359 0.56641 3.4609 3.6055 6.0898 7.168 6.0898h63.211c3.5625 0 6.6016-2.6328 7.168-6.0898 3.0664-0.91016 5.4102-3.5664 5.8438-6.8359 3.1719-1.4414 5.3828-4.6367 5.3828-8.3438v-50.566-0.011718zm-23.008-21c0-1.6289 1.3242-2.9531 2.9531-2.9531 1.6289 0 2.9531 1.3242 2.9531 2.9531v2.8477 0.011719 0.011719 2.8477c0 1.6289-1.3242 2.9531-2.9531 2.9531-1.6289 0-2.9531-1.3242-2.9531-2.9531zm-19.961 0c0-1.6289 1.3242-2.9531 2.9531-2.9531s2.9531 1.3242 2.9531 2.9531v2.8594 0.003906 0.003906 2.8594c0 1.6289-1.3242 2.9531-2.9531 2.9531s-2.9531-1.3242-2.9531-2.9531zm-17.012-2.9492c1.6289 0 2.9531 1.3242 2.9531 2.9531v5.7227c0 1.6289-1.3242 2.9531-2.9531 2.9531-1.6289 0-2.9531-1.3242-2.9531-2.9531v-2.8555-0.011719-0.011719-2.8516c0-1.6211 1.3242-2.9453 2.9531-2.9453zm-22.918 2.9492c0-1.6289 1.3242-2.9531 2.9531-2.9531 1.6289 0 2.9531 1.3242 2.9531 2.9531v5.7227c0 1.6289-1.3242 2.9531-2.9531 2.9531-1.6289 0-2.9531-1.3242-2.9531-2.9531zm-7.9414 3.6836h6.3008v2.0391c0 2.5352 2.0625 4.5938 4.5938 4.5938 2.5352 0 4.5938-2.0625 4.5938-4.5938v-2.0391h10.773v2.0391c0 2.5352 2.0625 4.5938 4.5938 4.5938 2.5352 0 4.5938-2.0625 4.5938-4.5938l0.003906-2.0391h10.773v2.0391c0 2.5352 2.0625 4.5938 4.5938 4.5938 2.5352 0 4.5938-2.0625 4.5938-4.5938l0.003906-2.0391h10.773v2.0391c0 2.5352 2.0625 4.5938 4.5938 4.5938 2.5352 0 4.5938-2.0625 4.5938-4.5938v-2.0391h6.3008c4.1445 0 7.5156 3.3711 7.5156 7.5195v8.9766h-96.711v-8.9766c0-4.1484 3.3711-7.5195 7.5156-7.5195zm72.445 87.523h-63.211c-2.5586 0-4.7656-1.75-5.4219-4.1367 0.19922 0.015625 0.39453 0.027344 0.59766 0.027344h72.867c0.19922 0 0.39844-0.015625 0.59766-0.027344-0.66406 2.3867-2.8711 4.1367-5.4297 4.1367zm4.8281-5.75h-72.867c-3.043 0-5.6523-2.0898-6.4023-4.9375 0.64063 0.14453 1.3086 0.22266 1.9922 0.22266h81.684c0.68359 0 1.3516-0.078125 1.9922-0.22266-0.74609 2.8477-3.3555 4.9375-6.3984 4.9375zm4.4062-6.3594h-81.68c-4.1445 0-7.5156-3.3711-7.5156-7.5195v-49.758h96.711v49.758c0 4.1445-3.3711 7.5195-7.5156 7.5195z"/>
 <path d="m50 34.598c-1.3594 0-2.4609 1.1016-2.4609 2.4609s1.1016 2.4609 2.4609 2.4609 2.4609-1.1016 2.4609-2.4609c0-1.3555-1.1016-2.4609-2.4609-2.4609z"/>
 <path d="m62 34.598c-1.3594 0-2.4609 1.1016-2.4609 2.4609s1.1016 2.4609 2.4609 2.4609 2.4609-1.1016 2.4609-2.4609c0.003906-1.3555-1.1016-2.4609-2.4609-2.4609z"/>
 <path d="m74.004 34.598c-1.3594 0-2.4609 1.1016-2.4609 2.4609s1.1016 2.4609 2.4609 2.4609 2.4609-1.1016 2.4609-2.4609c0-1.3555-1.1016-2.4609-2.4609-2.4609z"/>
 <path d="m86.004 34.598c-1.3594 0-2.4609 1.1016-2.4609 2.4609s1.1016 2.4609 2.4609 2.4609 2.4609-1.1016 2.4609-2.4609c0-1.3555-1.1016-2.4609-2.4609-2.4609z"/>
 <path d="m16.457 49.699c0 3.2852-4.9219 3.2852-4.9219 0 0-3.2812 4.9219-3.2812 4.9219 0"/>
 <path d="m28.453 49.527c0.23047 3.2734-4.6797 3.6211-4.9102 0.34766-0.23438-3.2734 4.6758-3.6211 4.9102-0.34766"/>
 <path d="m40.453 49.527c0.23438 3.2734-4.6758 3.6211-4.9102 0.34766s4.6797-3.6211 4.9102-0.34766"/>
 <path d="m50.242 47.25c3.2656 0.32422 2.7812 5.2227-0.48438 4.9023-3.2656-0.32422-2.7812-5.2227 0.48438-4.9023"/>
 <path d="m64.465 49.699c0 3.2852-4.9258 3.2852-4.9258 0 0-3.2812 4.9258-3.2812 4.9258 0"/>
 <path d="m76.457 49.527c0.23438 3.2734-4.6758 3.6211-4.9102 0.34766-0.23047-3.2734 4.6797-3.6211 4.9102-0.34766"/>
 <path d="m86.246 47.25c3.2656 0.32422 2.7812 5.2227-0.48438 4.9023-3.2656-0.32422-2.7812-5.2227 0.48438-4.9023"/>
 <path d="m13.996 59.879c-1.3594 0-2.4609 1.1016-2.4609 2.4609s1.1016 2.4609 2.4609 2.4609 2.4609-1.1016 2.4609-2.4609-1.1016-2.4609-2.4609-2.4609z"/>
 <path d="m25.996 59.879c-1.3594 0-2.4609 1.1016-2.4609 2.4609s1.1016 2.4609 2.4609 2.4609 2.4609-1.1016 2.4609-2.4609-1.1016-2.4609-2.4609-2.4609z"/>
 <path d="m38 59.879c-1.3594 0-2.4609 1.1016-2.4609 2.4609s1.1016 2.4609 2.4609 2.4609 2.4609-1.1016 2.4609-2.4609-1.1016-2.4609-2.4609-2.4609z"/>
 <path d="m50 59.879c-1.3594 0-2.4609 1.1016-2.4609 2.4609s1.1016 2.4609 2.4609 2.4609 2.4609-1.1016 2.4609-2.4609-1.1016-2.4609-2.4609-2.4609z"/>
 <path d="m62 59.879c-1.3594 0-2.4609 1.1016-2.4609 2.4609s1.1016 2.4609 2.4609 2.4609 2.4609-1.1016 2.4609-2.4609c0.003906-1.3594-1.1016-2.4609-2.4609-2.4609z"/>
 <path d="m74.004 59.879c-1.3594 0-2.4609 1.1016-2.4609 2.4609s1.1016 2.4609 2.4609 2.4609 2.4609-1.1016 2.4609-2.4609-1.1016-2.4609-2.4609-2.4609z"/>
 <path d="m86.004 59.879c-1.3594 0-2.4609 1.1016-2.4609 2.4609s1.1016 2.4609 2.4609 2.4609 2.4609-1.1016 2.4609-2.4609-1.1016-2.4609-2.4609-2.4609z"/>
 <path d="m13.996 72.52c-1.3594 0-2.4609 1.1016-2.4609 2.4609s1.1016 2.4609 2.4609 2.4609 2.4609-1.1016 2.4609-2.4609-1.1016-2.4609-2.4609-2.4609z"/>
 <path d="m25.996 72.52c-1.3594 0-2.4609 1.1016-2.4609 2.4609s1.1016 2.4609 2.4609 2.4609 2.4609-1.1016 2.4609-2.4609-1.1016-2.4609-2.4609-2.4609z"/>
 <path d="m38 72.52c-1.3594 0-2.4609 1.1016-2.4609 2.4609s1.1016 2.4609 2.4609 2.4609 2.4609-1.1016 2.4609-2.4609-1.1016-2.4609-2.4609-2.4609z"/>
 <path d="m50 72.52c-1.3594 0-2.4609 1.1016-2.4609 2.4609s1.1016 2.4609 2.4609 2.4609 2.4609-1.1016 2.4609-2.4609-1.1016-2.4609-2.4609-2.4609z"/>
</svg>