<svg xmlns="http://www.w3.org/2000/svg" xmlns:xlink="http://www.w3.org/1999/xlink" version="1.1" x="0px" y="0px" viewBox="-13 5 100 125" style="enable-background:new -13 15 100 100; transform: scale(1.7)" xml:space="preserve"><g><ellipse cx="58.9" cy="89.9" rx="1.2" ry="2"/><path d="M58.9,82.6h-6.7c-0.5,0-1,0.1-1.5,0.3V37.8c0-3.1,2.5-5.7,5.7-5.7h4.5c2.1,0,3.7-1.7,3.7-3.7s-1.7-3.7-3.7-3.7l-29.8,0   c-5.5,0-10,4.5-10,10v48.1h-6.7c-2.7,0-4.8,3.2-4.8,7.2s2.1,7.2,4.8,7.2h0.4l-7.5,5.6c-0.3,0.3-0.4,0.7-0.3,1.1   c0.1,0.4,0.5,0.7,0.9,0.7h34.5c0.2,0,0.5-0.1,0.6-0.2l9.6-7.1h6.3c2.7,0,4.8-3.2,4.8-7.2S61.6,82.6,58.9,82.6z M31.1,26.5l29.8,0   c1,0,1.7,0.8,1.7,1.7s-0.8,1.7-1.7,1.7h-4.5c-4.2,0-7.7,3.4-7.7,7.7v47.1c-0.4,0.6-0.7,1.2-0.9,2h-2.6v-49c0-2,0.6-4,1.6-5.8   c0.1-0.1,0.1-0.1,0.2-0.2c0-0.1,1-1.5,3.6-2.2c0.5-0.2,0.8-0.7,0.7-1.2s-0.7-0.8-1.2-0.7c-2.2,0.6-3.5,1.7-4.1,2.4H31.1   c-2.5,0-4.5,2-4.5,4.5v13.8c-1.2,0.5-2.1,1.8-2.1,3.2s0.9,2.6,2.1,3.2V66c-1.2,0.5-2.1,1.8-2.1,3.2s0.9,2.6,2.1,3.2v14.5H23V34.6   C23,30.1,26.6,26.5,31.1,26.5z M43.2,55v10.6H28.5V55H43.2z M43.2,37.8V48H28.5V34.6c0-1.4,1.1-2.5,2.5-2.5h13.5   C43.7,33.8,43.2,35.8,43.2,37.8z M28,50h15.3v3H28c-0.8,0-1.5-0.7-1.5-1.5S27.1,50,28,50z M28,67.6h15.3v3H28   c-0.8,0-1.5-0.7-1.5-1.5S27.1,67.6,28,67.6z M28.5,72.6h14.7v14.1H28.5V72.6z M21,84.6v2.2h-2.2C19.4,85.5,20.2,84.7,21,84.6z    M14.4,95.1C14.4,95.1,14.4,95.1,14.4,95.1c-1.4,0-2.8-2.1-2.8-5.2s1.5-5.2,2.8-5.2c0,0,0,0,0.1,0c0,0,0,0,0,0h3.3   c-0.9,1.3-1.5,3.2-1.5,5.2c0,1.1,0.2,2.1,0.4,3l0,2.3L14.4,95.1C14.4,95.1,14.4,95.1,14.4,95.1z M42,102.5H10.6l7.5-5.3h3h28.5   L42,102.5z M51.3,95.1H18.7l0-6.3h32.6V95.1z M55.6,95.1h-2.3v-7.3c0-0.6-0.4-1-1-1H50c0.5-1.3,1.4-2.2,2.2-2.2c0,0,0,0,0.1,0   c0,0,0,0,0,0h3.3c-0.9,1.3-1.5,3.2-1.5,5.2S54.6,93.8,55.6,95.1z M58.9,95.1c-1.3,0-2.8-2.2-2.8-5.2s1.5-5.2,2.8-5.2   s2.8,2.2,2.8,5.2S60.2,95.1,58.9,95.1z"/></g></svg>