<svg xmlns="http://www.w3.org/2000/svg" style="enable-background:new -13 15 100 100; transform: scale(1.55)" version="1.1" viewBox="-5.0 -10.0 110.0 135.0">
 <path d="m39.922 67.27c0.12109-0.089843 0.25-0.089843 0.37891-0.019531 1.3711 0.76953 2.8281 1.3789 4.3516 1.8008 0.14062 0.039063 0.23047 0.14062 0.26172 0.28125l0.5 2.7305c0.19141 1.0703 1.1211 1.8398 2.1992 1.8398h4.7812c1.0781 0 2.0117-0.76953 2.1992-1.8398l0.5-2.7305c0.03125-0.14844 0.10938-0.23828 0.26172-0.28125 1.5117-0.42188 2.9688-1.0312 4.3516-1.8008 0.12891-0.070312 0.26172-0.070312 0.37891 0.019531l2.2891 1.5781c0.89062 0.62109 2.0898 0.51172 2.8594-0.26172l3.3789-3.3789c0.76953-0.76953 0.87109-1.9688 0.26172-2.8594l-1.5781-2.2812c-0.089844-0.12109-0.089844-0.25-0.019531-0.37891 0.76953-1.3711 1.3789-2.8281 1.8008-4.3516 0.039063-0.14063 0.14062-0.23047 0.28125-0.26172l2.7305-0.5c1.0703-0.19141 1.8398-1.1211 1.8398-2.1992v-4.7812c0-1.0781-0.76953-2.0117-1.8398-2.1992l-2.7305-0.5c-0.14844-0.03125-0.23828-0.10938-0.28125-0.26172-0.42188-1.5117-1.0312-2.9688-1.8008-4.3516-0.070313-0.12891-0.070313-0.26172 0.019531-0.37891l1.5781-2.2891c0.62109-0.89062 0.51172-2.0898-0.26172-2.8594l-3.3789-3.3789c-0.76953-0.76953-1.9688-0.87109-2.8594-0.26172l-2.2891 1.5781c-0.12109 0.089844-0.25 0.089844-0.37891 0.019532-1.3711-0.76953-2.8281-1.3789-4.3516-1.8008-0.14062-0.039062-0.23047-0.14062-0.26172-0.28125l-0.5-2.7305c-0.19141-1.0703-1.1211-1.8398-2.1992-1.8398h-4.7812c-1.0781 0-2.0117 0.76953-2.1992 1.8398l-0.5 2.7305c-0.03125 0.14844-0.10937 0.23828-0.26172 0.28125-1.5117 0.42188-2.9688 1.0312-4.3516 1.8008-0.12891 0.070312-0.26172 0.070312-0.37891-0.019532l-2.2891-1.5781c-0.89062-0.62109-2.0898-0.51172-2.8594 0.26172l-3.3789 3.3789c-0.76953 0.76953-0.87109 1.9688-0.26172 2.8594l1.5781 2.2812c0.089843 0.12109 0.089843 0.25 0.019531 0.37891-0.76953 1.3711-1.3789 2.8281-1.8008 4.3516-0.039063 0.14062-0.14063 0.23047-0.28125 0.26172l-2.7305 0.5c-1.0703 0.19141-1.8398 1.1211-1.8398 2.1992v4.7812c0 1.0781 0.76953 2.0117 1.8398 2.1992l2.7305 0.5c0.14844 0.03125 0.23828 0.10938 0.28125 0.26172 0.42187 1.5117 1.0312 2.9688 1.8008 4.3516 0.070312 0.12891 0.070312 0.26172-0.019531 0.37891l-1.5781 2.2891c-0.62109 0.89062-0.51172 2.0898 0.26172 2.8594l3.3789 3.3789c0.76953 0.76953 1.9688 0.87109 2.8594 0.26172zm-3.8125 0-3.3789-3.3789c-0.12891-0.12891-0.14062-0.30859-0.039063-0.46094l1.5781-2.2891c0.48828-0.71094 0.53125-1.6211 0.10938-2.3711-0.69922-1.2383-1.25-2.5703-1.6289-3.9297-0.23047-0.82812-0.91016-1.4414-1.7617-1.6016l-2.7305-0.5c-0.17969-0.03125-0.30078-0.17969-0.30078-0.35938v-4.7812c0-0.17969 0.12109-0.32031 0.30078-0.35938l2.7305-0.5c0.85156-0.14844 1.5195-0.76953 1.7617-1.6016 0.37891-1.3711 0.92969-2.6914 1.6289-3.9297 0.42188-0.75 0.37891-1.6602-0.10938-2.3711l-1.5781-2.2812c-0.10156-0.14844-0.089844-0.32813 0.039063-0.46094l3.3789-3.3789c0.12891-0.12891 0.30859-0.14062 0.46094-0.039063l2.2891 1.5781c0.71094 0.48828 1.6211 0.53125 2.3711 0.10938 1.2383-0.69922 2.5703-1.25 3.9297-1.6289 0.82812-0.23047 1.4414-0.91016 1.6016-1.7617l0.5-2.7305c0.03125-0.17969 0.17969-0.30078 0.35938-0.30078h4.7812c0.17969 0 0.32031 0.12109 0.35938 0.30078l0.5 2.7305c0.14844 0.85156 0.76953 1.5195 1.6016 1.7617 1.3711 0.37891 2.6914 0.92969 3.9297 1.6289 0.75 0.42188 1.6602 0.37891 2.3711-0.10938l2.2891-1.5781c0.14844-0.10156 0.32812-0.089843 0.46094 0.039063l3.3789 3.3789c0.12891 0.12891 0.14062 0.30859 0.039062 0.46094l-1.5781 2.2891c-0.48828 0.71094-0.53125 1.6211-0.10938 2.3711 0.69922 1.2383 1.25 2.5586 1.6289 3.9297 0.23047 0.82812 0.91016 1.4414 1.7617 1.6016l2.7305 0.5c0.17969 0.03125 0.30078 0.17969 0.30078 0.35938v4.7812c0 0.17969-0.12109 0.32031-0.30078 0.35938l-2.7305 0.5c-0.85156 0.14844-1.5195 0.76953-1.7617 1.6016-0.37891 1.3711-0.92969 2.6914-1.6289 3.9297-0.42188 0.75-0.37891 1.6602 0.10938 2.3711l1.5781 2.2812c0.10156 0.14844 0.089844 0.32812-0.039062 0.46094l-3.3789 3.3789c-0.12891 0.12891-0.30859 0.14062-0.46094 0.039063l-2.2891-1.5781c-0.71094-0.48828-1.6211-0.53125-2.3711-0.10938-1.2383 0.69922-2.5703 1.25-3.9297 1.6289-0.82812 0.23047-1.4414 0.91016-1.6016 1.7617l-0.5 2.7305c-0.03125 0.17969-0.17969 0.30078-0.35938 0.30078h-4.7812c-0.17969 0-0.32031-0.12109-0.35938-0.30078l-0.5-2.7305c-0.14844-0.85156-0.76953-1.5195-1.6016-1.7617-1.3711-0.37891-2.6914-0.92969-3.9297-1.6289-0.35156-0.19141-0.71875-0.28906-1.1016-0.28906-0.44922 0-0.89062 0.12891-1.2695 0.39844l-2.2812 1.5781c-0.15625 0.11328-0.33984 0.089844-0.46875-0.039063zm13.891-5.5508c6.4609 0 11.719-5.2617 11.719-11.719 0-6.4609-5.2617-11.719-11.719-11.719-6.4609 0-11.719 5.2578-11.719 11.719s5.2578 11.719 11.719 11.719zm0-21.559c5.4297 0 9.8398 4.4102 9.8398 9.8398s-4.4102 9.8398-9.8398 9.8398-9.8398-4.4102-9.8398-9.8398 4.4102-9.8398 9.8398-9.8398zm-37.551 14.84c-0.21875-1.6484-0.32812-3.3398-0.32812-5 0-20.891 16.988-37.879 37.879-37.879 3.25 0 6.4609 0.41016 9.5703 1.2188l-2.3789-4.1289c-0.26172-0.44922-0.10938-1.0195 0.33984-1.2812 0.44922-0.26172 1.0195-0.10938 1.2812 0.33984l3.5586 6.1602c0.26172 0.44922 0.10938 1.0195-0.33984 1.2812l-6.1602 3.5586c-0.44922 0.26172-1.0195 0.10938-1.2812-0.33984-0.26172-0.44922-0.10938-1.0195 0.33984-1.2812l4.2695-2.4609c-2.9883-0.78906-6.0703-1.1797-9.1914-1.1797-19.852 0-36.012 16.148-36.012 36.012 0 1.5781 0.10938 3.1797 0.30859 4.75 0.070312 0.51172-0.28906 0.98828-0.80859 1.0508-0.039063 0.011719-0.078125 0.011719-0.12109 0.011719-0.46484-0.011719-0.86328-0.36328-0.92578-0.83203zm73.539-16.852c1.25 3.8086 1.8906 7.8008 1.8906 11.852 0 20.891-16.988 37.879-37.879 37.879-3.2383 0-6.4492-0.41016-9.5703-1.2188l2.3789 4.1289c0.26172 0.44922 0.10938 1.0195-0.33984 1.2812-0.14844 0.089844-0.30859 0.12891-0.46875 0.12891-0.32031 0-0.64062-0.17188-0.80859-0.46875l-3.5586-6.1602c-0.12109-0.21875-0.16016-0.46875-0.089843-0.71094 0.058593-0.23828 0.21875-0.44922 0.44141-0.57031l6.1602-3.5586c0.44922-0.26172 1.0195-0.10938 1.2812 0.33984 0.26172 0.44922 0.10938 1.0195-0.33984 1.2812l-4.2695 2.4609c2.9883 0.78906 6.0703 1.1914 9.1914 1.1914 19.852 0 36.012-16.148 36.012-36.012 0-3.8516-0.60156-7.6406-1.8008-11.262-0.16016-0.48828 0.10938-1.0195 0.60156-1.1797 0.48047-0.16016 1.0078 0.10938 1.168 0.59766zm-5.0977-34.137c-8.3281 0-15.102 6.7695-15.102 15.102 0 8.3281 6.7695 15.102 15.102 15.102 8.3281 0 15.102-6.7695 15.102-15.102-0.003907-8.332-6.7734-15.102-15.102-15.102zm0 28.316c-7.2891 0-13.219-5.9297-13.219-13.219s5.9297-13.219 13.219-13.219 13.219 5.9297 13.219 13.219c0.011719 7.2891-5.918 13.219-13.219 13.219zm3.3711-10.797c0 1.5312-1.0312 2.8281-2.4297 3.2305v0.87109c0 0.51953-0.42188 0.94141-0.94141 0.94141s-0.94141-0.42188-0.94141-0.94141v-0.87109c-0.89062-0.26172-1.6406-0.87109-2.0703-1.7305-0.23047-0.46094-0.039062-1.0312 0.42188-1.2617 0.46094-0.23047 1.0312-0.039062 1.2617 0.42188 0.25 0.51172 0.76953 0.82031 1.3281 0.82031 0.82031 0 1.4883-0.67188 1.4883-1.4883 0-0.87891-0.89844-1.3594-1.6602-1.5117-1.9102-0.35938-3.1914-1.7109-3.1914-3.3516 0-1.5312 1.0312-2.8281 2.4297-3.2305v-0.87109c0-0.51953 0.42188-0.94141 0.94141-0.94141 0.51953 0 0.94141 0.42187 0.94141 0.94141v0.87109c0.89062 0.26172 1.6406 0.87109 2.0703 1.7305 0.23047 0.46094 0.039063 1.0312-0.42188 1.2617-0.46094 0.23047-1.0312 0.039063-1.2617-0.42188-0.25-0.51172-0.76953-0.82031-1.3281-0.82031-0.82031 0-1.4883 0.67187-1.4883 1.4883 0 0.87891 0.89844 1.3594 1.6602 1.5117 1.9102 0.35937 3.1914 1.7109 3.1914 3.3516zm-3.3711-13.66c-6.1992 0-11.238 5.0391-11.238 11.238s5.0391 11.238 11.238 11.238 11.238-5.0391 11.238-11.238-5.0391-11.238-11.238-11.238zm0 20.59c-5.1602 0-9.3594-4.1992-9.3594-9.3594 0-5.1602 4.1992-9.3594 9.3594-9.3594s9.3594 4.1992 9.3594 9.3594c0 5.168-4.1914 9.3594-9.3594 9.3594zm-59.031 37.598v-1.8594h0.30078c1.2109 0 2.1992-0.98828 2.1992-2.1992v-0.76953c0-1.2109-0.98828-2.1992-2.1992-2.1992h-6.1211c-1.2109 0-2.1992 0.98828-2.1992 2.1992v0.76953c0 1.2109 0.98828 2.1992 2.1992 2.1992h0.30078v1.8594c-7.0117 1.3008-12.34 7.4492-12.34 14.84 0 8.3281 6.7695 15.102 15.102 15.102 8.3281 0 15.102-6.7695 15.102-15.102-0.003906-7.3867-5.332-13.539-12.344-14.84zm-6.1406-4.0586v-0.76953c0-0.17188 0.14844-0.32031 0.32031-0.32031h6.1211c0.17188 0 0.32031 0.14844 0.32031 0.32031v0.76953c0 0.17188-0.14844 0.32031-0.32031 0.32031h-6.1211c-0.16797 0-0.32031-0.14062-0.32031-0.32031zm2.5117 2.1992h1.7617v1.6406c-0.28906-0.019532-0.57813-0.039063-0.87891-0.039063s-0.58984 0.03125-0.87891 0.039063zm0.87891 29.922c-7.2891 0-13.219-5.9297-13.219-13.219 0-7.2891 5.9297-13.219 13.219-13.219s13.219 5.9297 13.219 13.219c0 7.2891-5.9297 13.219-13.219 13.219zm0-25.102c-6.5508 0-11.871 5.3281-11.871 11.871 0 6.5391 5.3281 11.871 11.871 11.871 6.5391 0 11.871-5.3281 11.871-11.871 0-6.5391-5.332-11.871-11.871-11.871zm9.4609 12.809h0.48047c-0.19141 2.0508-1 3.9297-2.25 5.4297l-0.33984-0.33984c-0.37109-0.37109-0.96094-0.37109-1.3281 0-0.37109 0.37109-0.37109 0.96094 0 1.3281l0.33984 0.33984c-1.5 1.25-3.3789 2.0586-5.4297 2.25v-0.48047c0-0.51953-0.42188-0.94141-0.94141-0.94141-0.51953 0-0.94141 0.42188-0.94141 0.94141v0.48047c-2.0508-0.19141-3.9297-1-5.4297-2.25l0.33984-0.33984c0.37109-0.37109 0.37109-0.96094 0-1.3281-0.37109-0.37109-0.96094-0.37109-1.3281 0l-0.33984 0.33984c-1.25-1.5-2.0586-3.3789-2.25-5.4297h0.48047c0.51953 0 0.94141-0.42188 0.94141-0.94141s-0.42188-0.94141-0.94141-0.94141l-0.47266 0.003907c0.19141-2.0508 1-3.9297 2.25-5.4297l0.33984 0.33984c0.17969 0.17969 0.42188 0.28125 0.66016 0.28125 0.23828 0 0.48047-0.089844 0.66016-0.26953 0.37109-0.37109 0.37109-0.96094 0-1.3281l-0.33984-0.33984c1.5-1.25 3.3789-2.0586 5.4297-2.25v0.48047c0 0.51953 0.42188 0.94141 0.94141 0.94141 0.51953 0 0.94141-0.42188 0.94141-0.94141v-0.48047c2.0508 0.19141 3.9297 1 5.4297 2.25l-0.33984 0.33984c-0.37109 0.37109-0.37109 0.96094 0 1.3281 0.17969 0.17969 0.42188 0.26953 0.66016 0.26953s0.48047-0.089844 0.66016-0.28125l0.33984-0.33984c1.25 1.5 2.0586 3.3789 2.25 5.4297h-0.48047c-0.51953 0-0.94141 0.42188-0.94141 0.94141s0.42969 0.9375 0.94922 0.9375zm-7.7812-0.9375c0 0.92969-0.75 1.6797-1.6797 1.6797s-1.6797-0.75-1.6797-1.6797c0-0.57812 0.28906-1.0898 0.73828-1.3906v-5.8789c0-0.51953 0.42188-0.94141 0.94141-0.94141s0.94141 0.42187 0.94141 0.94141v5.8789c0.4375 0.30078 0.73828 0.80859 0.73828 1.3906z" fill-rule="evenodd"/>
</svg>