<svg xmlns="http://www.w3.org/2000/svg" version="1.1" viewBox="-5.0 -5.0 110.0 105.0">
 <path d="m11.238 30.812c0.30469-0.76953 1.1758-1.1484 1.9453-0.84375 0.76953 0.30469 1.1484 1.1758 0.84375 1.9453l-0.25781 0.64844c-0.30469 0.76953-1.1758 1.1484-1.9453 0.84375s-1.1484-1.1758-0.84375-1.9453zm62.242-5.8594 9.8125-3.8867c0.76953-0.30469 1.6406 0.074219 1.9453 0.84375l11.156 28.172c0.30469 0.76953-0.074219 1.6406-0.84375 1.9453l-9.8125 3.8867c-0.76953 0.30469-1.6406-0.074218-1.9453-0.84375l-0.46484-1.1758-2.7305 1.4219c-0.73438 0.38281-1.6406 0.09375-2.0195-0.64062-0.38281-0.73438-0.09375-1.6406 0.64062-2.0195l3.0039-1.5664-7.7852-19.648-12.758 1.4492c-0.88672 0.097656-1.7031 0.27344-2.4883 0.52734-0.78906 0.25781-1.5508 0.60156-2.3242 1.043l-14.008 7.9805c-0.027344 0.019532-0.042969 0.0625-0.046875 0.11719-0.015625 0.11719 0.011719 0.24609 0.074219 0.35547l0.039062 0.0625c0.46875 0.59766 1.0742 1.0117 1.75 1.2461 0.74609 0.26562 1.5898 0.32031 2.4375 0.18359l13.648-2.25c0.81641-0.13281 1.582 0.42188 1.7148 1.2383 0.13281 0.81641-0.42187 1.582-1.2383 1.7148l-13.648 2.25c-1.3398 0.22266-2.6914 0.125-3.9141-0.30859-1.1914-0.41797-2.2656-1.1562-3.1016-2.2266l-0.28906-0.42969c-0.38281-0.67969-0.53516-1.4688-0.4375-2.207 0.10156-0.80078 0.48828-1.5586 1.1641-2.0898l0.375-0.25 6.2344-3.5508-1.2383-0.96875c-0.94531-0.73828-1.9141-1.3125-2.9336-1.7344-1.0156-0.41797-2.1055-0.69531-3.3008-0.83984l-14.395-1.75-8.0078 20.219 8.8203 6.1875 0.41016-0.49609c0.86328-1.0352 2.0742-1.6289 3.3242-1.7422s2.5508 0.24609 3.582 1.1055l0.10938 0.097656c0.65234 0.57422 1.1172 1.293 1.3828 2.0664 0.43359-0.16797 0.88281-0.27344 1.3438-0.31641 1.2305-0.11328 2.5078 0.23828 3.5352 1.0742l0.082032 0.066406c1.0156 0.85938 1.5938 2.0625 1.707 3.2969 0.019531 0.20703 0.023437 0.41406 0.019531 0.61719 1.0078 0.046874 2.0117 0.40625 2.8477 1.0859l0.15234 0.125 0.019531 0.019531c0.96094 0.85547 1.5117 2.0195 1.6211 3.2188 0.023437 0.25781 0.027344 0.51562 0.007813 0.77344 0.82422 0.09375 1.6328 0.42188 2.3203 0.98047l0.042969 0.035157c0.94922 0.78906 1.4922 1.9062 1.5977 3.0586 0.019531 0.23047 0.023437 0.46094 0.007813 0.69141l1.6016 0.97266c1.0156 0.61719 1.9961 0.67188 2.7383 0.37891l0.054688-0.023437c0.32422-0.14062 0.59375-0.33984 0.79297-0.58203 0.1875-0.23047 0.31641-0.5 0.35937-0.78125 0.089844-0.57422-0.14453-1.2773-0.85156-1.9805l-3.6797-2.9453c-0.64453-0.51562-0.74609-1.4609-0.22656-2.1055 0.51562-0.64453 1.4609-0.74609 2.1055-0.22656l3.7305 2.9883 0.03125 0.023438 2.0234 1.6211c0.71484 0.57031 1.457 0.63672 2.0547 0.39844 0.29297-0.11719 0.55859-0.30469 0.76953-0.53516 0.21094-0.22656 0.375-0.50781 0.47266-0.8125 0.19141-0.61328 0.070312-1.3594-0.53906-2.0508l-5.5625-4.707c-0.62891-0.53516-0.70703-1.4805-0.17578-2.1094 0.53516-0.62891 1.4805-0.70703 2.1094-0.17578l5.5938 4.7344 0.03125 0.023438 0.054688 0.046874 1.7031 1.4414c0.76562 0.64844 1.6719 0.66406 2.3828 0.30859 0.29297-0.14453 0.55859-0.35937 0.76953-0.60937 0.19922-0.23828 0.34766-0.51563 0.42187-0.82031 0.19531-0.79297-0.13281-1.8086-1.3672-2.8086l-6.6172-5.4023c-0.64063-0.51953-0.73828-1.4648-0.21484-2.1055 0.51953-0.64062 1.4648-0.73828 2.1055-0.21484l6.6172 5.4023c0.92578 0.75391 1.9297 0.80859 2.7109 0.45312 0.32812-0.14844 0.62109-0.36328 0.85156-0.62109 0.22266-0.25 0.39844-0.55078 0.49219-0.87109 0.21484-0.71094 0.015624-1.5859-0.84375-2.3906l-8.4922-7.9648c-0.60156-0.56641-0.62891-1.5156-0.066406-2.1172 0.56641-0.60156 1.5156-0.62891 2.1172-0.066406l8.4922 7.9648c1.8125 1.6992 2.1836 3.7031 1.6641 5.4258-0.22266 0.74219-0.61719 1.4297-1.1367 2.0039-0.51172 0.57422-1.1484 1.043-1.8516 1.3633-0.47656 0.21484-0.98828 0.36719-1.5195 0.4375 0.16406 0.76562 0.13672 1.5195-0.035157 2.2227-0.1875 0.74609-0.54687 1.4336-1.0312 2.0156-0.46875 0.56641-1.0625 1.0391-1.7266 1.3672-1.1914 0.59766-2.6094 0.76172-3.9688 0.28516-0.03125 0.14062-0.070312 0.28125-0.10938 0.41797-0.22656 0.72266-0.62109 1.3906-1.1367 1.9492-0.51562 0.55469-1.1484 1.0039-1.8516 1.2852-1.0312 0.41406-2.2031 0.49609-3.375 0.089844-0.14844 0.75391-0.48438 1.4453-0.96094 2.0273-0.50391 0.62109-1.168 1.1211-1.9258 1.4492l-0.09375 0.035157c-1.543 0.62891-3.5117 0.58203-5.4414-0.58984l-1.2227-0.74219-1.2266 1.4766c-0.79297 0.95312-1.9102 1.5-3.0586 1.6055-1.1484 0.10547-2.3438-0.22656-3.2969-1.0234-0.69531-0.57812-1.1758-1.3281-1.4219-2.1367-0.25 0.0625-0.50781 0.10938-0.76562 0.13281-1.2461 0.11328-2.543-0.24609-3.5781-1.1094l-0.125-0.10938c-0.77734-0.69141-1.2852-1.5859-1.5078-2.5391-0.20312 0.042969-0.40625 0.078125-0.61328 0.09375-1.25 0.11328-2.5469-0.24609-3.582-1.1094-1.0391-0.86328-1.6289-2.0742-1.7422-3.3203-0.042969-0.45703-0.019532-0.92188 0.066406-1.3789-0.85156-0.12891-1.6836-0.48438-2.3906-1.0742-1.0352-0.86328-1.6289-2.0742-1.7422-3.3242-0.070313-0.76562 0.039062-1.5469 0.33203-2.2773l-8.2305-5.7734-0.39453 0.99609c-0.30469 0.76953-1.1758 1.1484-1.9453 0.84375l-9.8125-3.8867c-0.76953-0.30469-1.1484-1.1758-0.84375-1.9453l5.1602-13.027c0.30469-0.76953 1.1758-1.1484 1.9453-0.84375 0.76953 0.30469 1.1484 1.1758 0.84375 1.9453l-4.6094 11.637 7.0234 2.7812 10.055-25.383-7.0234-2.7812-0.75781 1.9141c-0.30469 0.76953-1.1758 1.1484-1.9453 0.84375-0.76953-0.30469-1.1484-1.1758-0.84375-1.9453l1.3086-3.3086c0.30469-0.76953 1.1758-1.1484 1.9453-0.84375l9.8125 3.8867c0.76953 0.30469 1.1484 1.1758 0.84375 1.9453l-0.48047 1.2148 13.605 1.6523c1.457 0.17578 2.8047 0.51953 4.0859 1.0508 1.2734 0.52734 2.4727 1.2383 3.6367 2.1445l2.207 1.7266 4.9688-2.8281c0.96094-0.54688 1.9023-0.97266 2.875-1.2891 0.97656-0.31641 1.9883-0.53125 3.0859-0.65625l11.945-1.3555-0.65625-1.6602c-0.30469-0.76953 0.074219-1.6406 0.84375-1.9453zm9.5195-0.54297-7.0234 2.7812 10.055 25.383 7.0234-2.7812zm-41.781 47.359 0.10156-0.12891c0.47656-0.57422 0.98047-1.25 1.4883-1.7852l0.011718-0.015625 0.51953-0.63281c0.28906-0.38672 0.40625-0.85938 0.36328-1.3203-0.042969-0.45703-0.24609-0.89844-0.60156-1.2266l-0.15625-0.12891c-0.38672-0.28906-0.86328-0.41016-1.3242-0.37109-0.47266 0.042969-0.92969 0.26172-1.2617 0.63672l-0.015625 0.019531-2.5547 3.0703c-0.33594 0.40234-0.47656 0.91016-0.42969 1.4023 0.042969 0.45703 0.24609 0.89844 0.60156 1.2266l0.16016 0.13281c0.38672 0.28516 0.85938 0.40625 1.3203 0.36328 0.45703-0.042969 0.89844-0.24609 1.2266-0.59766l0.53125-0.62891 0.015625-0.015625zm6.4609 0.96484c-0.03125-0.36328-0.19922-0.72266-0.48828-0.98828l-0.12891-0.10938c-0.30469-0.22266-0.67969-0.3125-1.0352-0.28125-0.35547 0.03125-0.70703 0.19141-0.96484 0.46484l-0.26953 0.32031-0.085938 0.10156c-0.41406 0.51562-0.82812 1.0469-1.25 1.5391-0.15234 0.27344-0.21094 0.58594-0.18359 0.88672 0.035156 0.38672 0.21875 0.76562 0.53906 1.0312s0.72656 0.375 1.1172 0.33984c0.38672-0.035156 0.76562-0.21875 1.0312-0.53906l1.3789-1.6562c0.26562-0.31641 0.375-0.72266 0.33984-1.1133zm-15.043-12.867c-0.042969-0.46094-0.25-0.91016-0.61328-1.2422l-0.066407-0.050781c-0.40625-0.33594-0.91797-0.48047-1.4023-0.4375-0.48828 0.042969-0.96094 0.27344-1.2969 0.67969l-1.3594 1.6328c-0.33594 0.40234-0.47656 0.91016-0.42969 1.4023 0.042969 0.48828 0.27344 0.96094 0.67969 1.2969 0.40234 0.33594 0.91016 0.47266 1.4023 0.42969 0.44141-0.039063 0.875-0.23438 1.1992-0.56641l0.015625-0.019531 1.4688-1.7617 0.015625-0.019531 0.003906-0.007813c0.29688-0.39062 0.42188-0.87109 0.37891-1.3398zm6.4141 2.9531c-0.042969-0.48047-0.26562-0.94531-0.65234-1.2773l-0.023438-0.019531c-0.40234-0.33594-0.91016-0.47656-1.4023-0.42969-0.48828 0.042969-0.96094 0.27344-1.2969 0.67578l-3.7031 4.457c-0.33594 0.40625-0.48047 0.91797-0.4375 1.4023 0.042969 0.48828 0.27344 0.96094 0.67578 1.293 0.40234 0.33594 0.91016 0.47266 1.4023 0.42969 0.48828-0.042968 0.96094-0.27344 1.2969-0.67578l0.58594-0.70312 2.5664-3.082 0.55859-0.67188c0.33203-0.39844 0.47266-0.90625 0.42578-1.3984z"/>
</svg>