<svg xmlns="http://www.w3.org/2000/svg" style="enable-background:new -13 15 100 100; transform: scale(1.5)" data-name="Layer 39" viewBox="0 -4 100 125" x="0px" y="0px"><path d="M65.23,4a31.48,31.48,0,0,0-28.8,18.36C18.69,24.11,15.24,35.91,15,37L11,48.33,4.5,56.66a2.32,2.32,0,0,0,1.44,3.72l5,.83V77.68a1,1,0,0,0,.44.83c.18.12,4.21,2.73,11.11.58V95a1,1,0,0,0,1,1H49.72a1,1,0,0,0,1-1l.4-15.68a49.89,49.89,0,0,0,9.77-14.66,33,33,0,0,0,4.34.29c17.3,0,31.38-13.67,31.38-30.48S82.53,4,65.23,4ZM49.41,78.24a1,1,0,0,0-.28.67L48.75,94H24.46V77.68a1,1,0,0,0-.44-.82,1,1,0,0,0-.92-.11c-5.47,2.1-9,.9-10.19.34V60.36a1,1,0,0,0-.83-1l-5.81-1a.34.34,0,0,1-.25-.2.33.33,0,0,1,.05-.32l6.63-8.45a1.18,1.18,0,0,0,.16-.29l4-11.55,0-.11c.11-.5,2.65-11.06,18.69-13a29.4,29.4,0,0,0-1.76,10,30.14,30.14,0,0,0,9.33,21.68l-5.87,9a1,1,0,0,0,.84,1.54,1,1,0,0,0,.29,0l14.11-4.31a31.46,31.46,0,0,0,6.34,2A48.32,48.32,0,0,1,49.41,78.24ZM65.23,63A29.89,29.89,0,0,1,53,60.4a1,1,0,0,0-.7,0L40.47,64l4.83-7.41a1,1,0,0,0-.17-1.28,28.16,28.16,0,0,1-9.3-20.78C35.83,18.78,49,6,65.23,6S94.61,18.78,94.61,34.5,81.43,63,65.23,63Z"/><path d="M78.19,16.79a14.41,14.41,0,0,0-20.11,3.08c-.28.39-.56.8-.81,1.22-2.24,3.73-2.53,7.69-2.78,11.17-.18,2.54-.34,4.76-1.22,6.39a3.23,3.23,0,0,0-2.79,5.63,5.47,5.47,0,0,0,1.68,6.83l1.14.83h0A5.42,5.42,0,0,0,56.53,53a4.76,4.76,0,0,0,.84-.07,5.42,5.42,0,0,0,2.94-1.44A3.21,3.21,0,0,0,62,52a3.23,3.23,0,0,0,2.76-4.94c1.3-1.3,3.37-2.12,5.72-3,3.25-1.28,6.94-2.74,9.82-6a13.92,13.92,0,0,0,.93-1.13h0A14.41,14.41,0,0,0,78.19,16.79ZM57.07,51a3.47,3.47,0,0,1-2.59-.64l-1.14-.84A3.45,3.45,0,0,1,52,47.21a3.49,3.49,0,0,1,.16-1.7l6.52,4.79A3.4,3.4,0,0,1,57.07,51Zm6-1.46a1.25,1.25,0,0,1-1.74.27L60.22,49l-7.84-5.76h0l-.56-.41a1.24,1.24,0,0,1,1.48-2l9.48,7A1.24,1.24,0,0,1,63.05,49.51ZM64.54,34l.71.52L66,35l-6,8.21-1.42-1Zm-.42-2.8-1.7-1.24a2.12,2.12,0,0,1,.93-3.79,1.84,1.84,0,0,1,.33,0,2.17,2.17,0,0,1,1.24.41,2.12,2.12,0,0,1,.45,2.95Zm15.54,4.57q-.39.53-.81,1c-2.57,2.9-6,4.26-9.07,5.46-2.47,1-4.83,1.91-6.43,3.54l-1.81-1.32,6-8.22,1.69,1.25a4.11,4.11,0,1,0-.87-5.75l-1.25,1.71-.71-.52-.71-.53L67,30.63a4.1,4.1,0,1,0-6.62-4.85,4.1,4.1,0,0,0,.88,5.74l1.69,1.24L56.9,41,55,39.61c1.08-2,1.26-4.55,1.45-7.2.23-3.27.5-7,2.5-10.29.22-.37.46-.73.7-1.06a12.39,12.39,0,1,1,20,14.66Zm-10.9-1.16L70,32.86a2.11,2.11,0,0,1,3.78.92,2.11,2.11,0,0,1-3.33,2Z"/></svg>