<svg xmlns="http://www.w3.org/2000/svg" xmlns:xlink="http://www.w3.org/1999/xlink" version="1.1" x="0px" y="0px" viewBox="0 -14 100 125" style="enable-background:new 0 0 100 100;" xml:space="preserve"><path d="M74.5,32.6c-0.7-0.1-1.3-0.1-2-0.1c-9,0-23,13.8-24.6,15.4c-5.3,5.3-15.4,13.7-20.4,13.7c-0.7,0-1.4-0.1-2-0.2  c-5.4-1-9.5-5.7-9.5-11.4c0-6.4,5.2-11.5,11.5-11.5c3.2,0,9.6,3.9,16.7,10.2c0.8-0.7,1.6-1.5,2.3-2.2c0.3-0.3,1-1,2-2  c-6.3-5.6-14.8-12-21-12C17.9,32.5,10,40.4,10,50c0,9,6.8,16.4,15.5,17.4c0.7,0.1,1.3,0.1,2,0.1c9,0,23-13.8,24.6-15.4  c5.3-5.3,15.4-13.7,20.4-13.7c0.7,0,1.4,0.1,2,0.2C79.9,39.6,84,44.3,84,50c0,6.4-5.2,11.5-11.5,11.5c-3.2,0-9.5-3.9-16.7-10.2  c-0.8,0.7-1.6,1.5-2.3,2.2c-0.4,0.4-1.1,1.1-2.1,2c6.3,5.6,14.8,12,21,12C82.1,67.5,90,59.6,90,50C90,41,83.2,33.6,74.5,32.6z"/></svg>