<svg xmlns="http://www.w3.org/2000/svg" xmlns:xlink="http://www.w3.org/1999/xlink" version="1.1" x="0px" y="0px" viewBox="0 0 2000 2300" style="enable-background:new 0 0 2000 2000;" xml:space="preserve"><path d="M1737.882,1256h-30.118V879.529c0-16.632-13.484-30.118-30.118-30.118h-135.529h-60.235V472.941  c0-16.632-13.484-30.118-30.118-30.118H984.941c-16.634,0-30.118,13.485-30.118,30.118v376.471h-60.235H744  c-16.634,0-30.118,13.485-30.118,30.118V1256h-60.235V427.765c0-16.632-13.484-30.118-30.118-30.118H262.118  c-16.634,0-30.118,13.485-30.118,30.118s13.484,30.118,30.118,30.118h210.824v1024c0,16.632,13.484,30.118,30.118,30.118h120.471  h94.165c13.408,51.901,60.627,90.353,116.658,90.353s103.251-38.452,116.658-90.353h459.389  c13.408,51.901,60.626,90.353,116.658,90.353c56.032,0,103.251-38.452,116.658-90.353h94.165c16.634,0,30.118-13.485,30.118-30.118  v-195.765C1768,1269.485,1754.516,1256,1737.882,1256z M1647.529,1256h-406.588V909.647h105.412v105.412  c0,16.632,13.484,30.118,30.118,30.118h165.647c16.634,0,30.118-13.485,30.118-30.118V909.647h75.294V1256z M1512,984.941h-105.412  v-75.294h45.176H1512V984.941z M1271.059,503.059v75.294h-105.412v-75.294H1271.059z M1015.059,503.059h90.353v105.412  c0,16.632,13.484,30.118,30.118,30.118h165.647c16.634,0,30.118-13.485,30.118-30.118V503.059h90.353v346.353h-45.177h-165.647  h-150.588h-45.177V503.059z M984.941,909.647h45.177v75.294H924.706v-75.294H984.941z M774.118,909.647h90.353v105.412  c0,16.632,13.484,30.118,30.118,30.118h165.647c16.634,0,30.118-13.485,30.118-30.118V909.647h90.353V1256H774.118V909.647z   M533.176,457.882h60.235v828.235v165.647h-60.235V457.882z M834.353,1542.118c-33.213,0-60.235-27.021-60.235-60.235  s27.022-60.235,60.235-60.235c33.213,0,60.235,27.021,60.235,60.235S867.566,1542.118,834.353,1542.118z M1527.059,1542.118  c-33.213,0-60.235-27.021-60.235-60.235s27.022-60.235,60.235-60.235s60.235,27.021,60.235,60.235  S1560.272,1542.118,1527.059,1542.118z M1707.765,1451.765h-64.048c-13.407-51.901-60.626-90.353-116.658-90.353  c-56.032,0-103.251,38.452-116.658,90.353H951.011c-13.408-51.901-60.626-90.353-116.658-90.353s-103.251,38.452-116.658,90.353  h-64.048v-135.529H744h466.823h466.824h30.118V1451.765z"/></svg>