<svg xmlns="http://www.w3.org/2000/svg" data-name="Layer 1" viewBox="0 -20 100 155" x="0px" y="0px"><title>Artboard 16</title><path d="M42.55,41.54H28a2.5,2.5,0,1,0,0,5H42.55l-2.39,2.39a2.5,2.5,0,1,0,3.54,3.54l6.66-6.66a2.5,2.5,0,0,0,0-3.54l-6.66-6.66a2.5,2.5,0,0,0-3.54,3.54Z"/><path d="M20.7,36.47a2.5,2.5,0,1,0,3.54-3.54l-2.39-2.39H36.38a2.5,2.5,0,0,0,0-5H21.84l2.39-2.39a2.5,2.5,0,0,0-3.54-3.54L14,26.28a2.5,2.5,0,0,0,0,3.54Z"/><path d="M99,51.05A9.58,9.58,0,0,0,94.58,43l-4.2-2.7-5-13.62a8.15,8.15,0,0,0-7.62-5.32H63.39V11.86A6.86,6.86,0,0,0,56.54,5H7.86A6.86,6.86,0,0,0,1,11.86V80.56a5.54,5.54,0,0,0,5.53,5.53h6.33a11.39,11.39,0,0,0,22.23,0H64.77a11.39,11.39,0,0,0,22.23,0h6.46A5.54,5.54,0,0,0,99,80.56v-16h0ZM77.74,26.32a3.13,3.13,0,0,1,2.93,2L86,42.78A2.5,2.5,0,0,0,87,44l4.91,3.15A4.6,4.6,0,0,1,94,51.05v11H63.39V26.32ZM7.86,10H56.54a1.86,1.86,0,0,1,1.86,1.86V62.08H6V11.86A1.86,1.86,0,0,1,7.86,10ZM24,90a6.4,6.4,0,1,1,6.4-6.4A6.41,6.41,0,0,1,24,90Zm51.9,0a6.4,6.4,0,1,1,6.4-6.4A6.41,6.41,0,0,1,75.89,90Zm17.58-8.9H87a11.39,11.39,0,0,0-22.23,0H35.1a11.39,11.39,0,0,0-22.23,0H6.53A.53.53,0,0,1,6,80.56V67.08H94V80.56A.53.53,0,0,1,93.47,81.09Z"/></svg>