<svg xmlns="http://www.w3.org/2000/svg" version="1.1" viewBox="-5.0 -15.0 110.0 135.0">
 <path d="m53.5 23c0-1.9336-1.5664-3.5-3.5-3.5s-3.5 1.5664-3.5 3.5v6.8008h-1.1484c-6.5469 0-11.852 5.3047-11.852 11.848 0 6.5469 5.3047 11.852 11.852 11.852h9.2969c2.6797 0 4.8516 2.1719 4.8516 4.8516 0 2.6758-2.1719 4.8477-4.8516 4.8477h-17.648c-1.9336 0-3.5 1.5664-3.5 3.5 0 1.9336 1.5664 3.5 3.5 3.5h9.5v6.8008c0 1.9336 1.5664 3.5 3.5 3.5s3.5-1.5664 3.5-3.5v-6.8008h1.1484c6.5469 0 11.852-5.3047 11.852-11.848 0-6.5469-5.3047-11.852-11.852-11.852h-9.2969c-2.6797 0-4.8516-2.1719-4.8516-4.8516 0-2.6758 2.1719-4.8477 4.8516-4.8477h17.648c1.9336 0 3.5-1.5664 3.5-3.5 0-1.9336-1.5664-3.5-3.5-3.5h-9.5z"/>
 <path d="m95 50c0 24.852-20.148 45-45 45s-45-20.148-45-45 20.148-45 45-45 45 20.148 45 45zm-7 0c0 20.988-17.012 38-38 38s-38-17.012-38-38 17.012-38 38-38 38 17.012 38 38z" fill-rule="evenodd"/>
</svg>