<svg xmlns="http://www.w3.org/2000/svg" version="1.1" viewBox="-5.0 -10.0 110.0 135.0">
 <path d="m37.086 68.75h-21.461c-2.4883 0-4.8711-0.98828-6.6289-2.7461-1.7578-1.7578-2.7461-4.1406-2.7461-6.6289v-43.75c0-2.4883 0.98828-4.8711 2.7461-6.6289 1.7578-1.7578 4.1406-2.7461 6.6289-2.7461h68.75c2.4883 0 4.8711 0.98828 6.6289 2.7461 1.7578 1.7578 2.7461 4.1406 2.7461 6.6289v43.75c0 2.4883-0.98828 4.8711-2.7461 6.6289-1.7578 1.7578-4.1406 2.7461-6.6289 2.7461h-21.461l2.3438 18.75h6.6172c1.7266 0 3.125 1.3984 3.125 3.125s-1.3984 3.125-3.125 3.125h-43.75c-1.7266 0-3.125-1.3984-3.125-3.125s1.3984-3.125 3.125-3.125h6.6172zm-21.461-6.25h68.75c0.82812 0 1.625-0.32812 2.2109-0.91406 0.58594-0.58594 0.91406-1.3828 0.91406-2.2109v-43.75c0-0.82812-0.32812-1.625-0.91406-2.2109-0.58594-0.58594-1.3828-0.91406-2.2109-0.91406h-68.75c-0.82812 0-1.625 0.32812-2.2109 0.91406-0.58594 0.58594-0.91406 1.3828-0.91406 2.2109v43.75c0 0.82812 0.32812 1.625 0.91406 2.2109 0.58594 0.58594 1.3828 0.91406 2.2109 0.91406zm27.758 6.25-2.3438 18.75h17.922l-2.3438-18.75z" fill-rule="evenodd"/>
</svg>