<svg xmlns="http://www.w3.org/2000/svg" viewBox="0 -10 90 112.5" fill="none" x="0px" y="0px"><path d="M24.3939 64.8788H15.303C12.9636 64.8788 11.0606 62.9758 11.0606 60.6364V52.1515H13.4848V60.6364C13.4848 61.6394 14.3 62.4545 15.303 62.4545H24.3939V64.8788Z" fill="black"/><path d="M54.0909 64.8788H38.9394V62.4545H54.0909C55.0939 62.4545 55.9091 61.6394 55.9091 60.6364V26.697C55.9091 25.6939 55.0939 24.8788 54.0909 24.8788H40.1515V22.4545H54.0909C56.4303 22.4545 58.3333 24.3576 58.3333 26.697V60.6364C58.3333 62.9758 56.4303 64.8788 54.0909 64.8788Z" fill="black"/><path d="M31.6667 72.1515C26.9879 72.1515 23.1818 68.3455 23.1818 63.6667C23.1818 58.9879 26.9879 55.1818 31.6667 55.1818C36.3455 55.1818 40.1515 58.9879 40.1515 63.6667C40.1515 68.3455 36.3455 72.1515 31.6667 72.1515ZM31.6667 57.6061C28.3242 57.6061 25.6061 60.3242 25.6061 63.6667C25.6061 67.0091 28.3242 69.7273 31.6667 69.7273C35.0091 69.7273 37.7273 67.0091 37.7273 63.6667C37.7273 60.3242 35.0091 57.6061 31.6667 57.6061Z" fill="black"/><path d="M70.4545 72.1515C65.7758 72.1515 61.9697 68.3455 61.9697 63.6667C61.9697 58.9879 65.7758 55.1818 70.4545 55.1818C75.1333 55.1818 78.9394 58.9879 78.9394 63.6667C78.9394 68.3455 75.1333 72.1515 70.4545 72.1515ZM70.4545 57.6061C67.1121 57.6061 64.3939 60.3242 64.3939 63.6667C64.3939 67.0091 67.1121 69.7273 70.4545 69.7273C73.797 69.7273 76.5152 67.0091 76.5152 63.6667C76.5152 60.3242 73.797 57.6061 70.4545 57.6061Z" fill="black"/><path d="M63.1818 62.4545H53.4848V64.8788H63.1818V62.4545Z" fill="black"/><path d="M80.7576 64.8788H77.7273V62.4545H80.7576C81.7606 62.4545 82.5758 61.6394 82.5758 60.6364V49.0879C82.5758 48.6333 82.4061 48.197 82.097 47.8606L70.4606 35.1667C70.1182 34.7909 69.6273 34.5758 69.1212 34.5758H57.1212V32.1515H69.1212C70.3061 32.1515 71.4455 32.6515 72.2485 33.5273L83.8848 46.2212C84.603 47.006 85 48.0242 85 49.0879V60.6364C85 62.9758 83.097 64.8788 80.7576 64.8788Z" fill="black"/><path d="M83.7879 49.1212H68.6364C66.297 49.1212 64.3939 47.2182 64.3939 44.8788V37H66.8182V44.8788C66.8182 45.8818 67.6333 46.697 68.6364 46.697H83.7879V49.1212Z" fill="black"/><path d="M21.9697 50.9394C12.6121 50.9394 5 43.3273 5 33.9697C5 24.6121 12.6121 17 21.9697 17C31.3273 17 38.9394 24.6121 38.9394 33.9697C38.9394 43.3273 31.3273 50.9394 21.9697 50.9394ZM21.9697 19.4242C13.9485 19.4242 7.42424 25.9485 7.42424 33.9697C7.42424 41.9909 13.9485 48.5152 21.9697 48.5152C29.9909 48.5152 36.5152 41.9909 36.5152 33.9697C36.5152 25.9485 29.9909 19.4242 21.9697 19.4242Z" fill="black"/><path d="M23.1818 24.2727H20.7576V35.0939H23.1818V24.2727Z" fill="black"/><path d="M28.724 32.7576H20.8452V35.1818H28.724V32.7576Z" fill="black"/></svg>