<svg xmlns="http://www.w3.org/2000/svg" data-name="Layer 1" viewBox="0 -5 95 100" x="0px" y="0px"><defs><style>.cls-1{fill-rule:evenodd;}</style></defs><title>a</title><path class="cls-1" d="M20.029,63.077a.544.544,0,1,1-.541.544.542.542,0,0,1,.541-.544Zm0,3.2a2.653,2.653,0,1,0-2.65-2.652,2.656,2.656,0,0,0,2.65,2.652ZM90.054,29.978,70.707,53.01a5.085,5.085,0,0,1-4,1.89l-29.719.325a7.159,7.159,0,0,0-4.4,1.51L30.77,58.122l-10.9-18.655,9.067-7.3a16.812,16.812,0,0,1,19.431.019,1.051,1.051,0,0,0,.611.194h13.85a3.979,3.979,0,0,1,0,7.957h-15.1a1.055,1.055,0,0,0,0,2.11h15.1a6.093,6.093,0,0,0,5.34-3.168L84.736,26.458a.846.846,0,0,0,.121-.11,3.2,3.2,0,0,1,5.2,3.63ZM18.818,69.265l11.941-6.978L16.943,38.642,5,45.622,18.818,69.265Zm73.046-38.2a5.313,5.313,0,0,0-8.48-6.231l-14.479,11.2a6.1,6.1,0,0,0-6.08-5.769H49.305a18.93,18.93,0,0,0-21.621.2c-.017.012-.033.027-.05.039L18.79,37.626l-.559-.958a1.055,1.055,0,0,0-1.443-.38L3.024,44.332a1.056,1.056,0,0,0-.378,1.443L17.528,71.24a1.052,1.052,0,0,0,.643.487.978.978,0,0,0,.268.036,1.057,1.057,0,0,0,.532-.144l13.764-8.045a1.056,1.056,0,0,0,.378-1.443l-1.271-2.174,2.026-1.543a5.048,5.048,0,0,1,3.149-1.079l29.717-.325a7.206,7.206,0,0,0,5.588-2.643l19.423-23.12A1.1,1.1,0,0,0,91.864,31.069Z"/></svg>