<svg xmlns="http://www.w3.org/2000/svg" version="1.1" viewBox="-5.0 -10.0 110.0 125.0">
 <path d="m34.859 20.328h5.3047l9.7109-9.7109h-5.3047zm8.9102 0 9.7109-9.7109h10.035l-9.7109 9.7109zm13.645 0h5.3047l9.7109-9.7109h-5.3047zm4.5547 2.5508h-6.3594v15.801c0 0.99219-1.1328 1.6836-2.0625 1.0039l-6.0352-4.125-6.1055 4.1719c-0.85156 0.58203-1.9922-0.050781-1.9922-1.0508v-15.801h-6.3594v28.91l28.91 0.003907v-28.914zm-8.9102 0v13.387l-4.8281-3.3008c-0.45312-0.30859-1.0352-0.28516-1.457 0.015625l-4.8086 3.2852v-13.387zm11.461-0.74609 9.7109-9.7109v27.855l-9.7109 9.7109zm-0.35938 31.82c-0.23047 0.23828-0.55859 0.39062-0.91797 0.39062h-9.7188l-2.2695 2.2695h29.168l3.8359-3.8359h-18.922zm-14.242 0.39062h-5.5234l-4.0742 4.0742v29.168l6.5781-6.5781v-23.117c0-0.35938 0.14844-0.68359 0.39062-0.91797zm-9.1289 0-2.2695 2.2695-29.164-0.003906 3.8359-3.8359h17.316c0 0.66406 0.54297 1.5664 1.2773 1.5664h9.0078zm-10.285-4.1172v-3.8359h-10.93l-3.8359 3.8359zm0-6.3867v-22.234c0-0.35938 0.14844-0.68359 0.39062-0.91797l12.23-12.23c0.23047-0.23828 0.55859-0.39062 0.91797-0.39062h31.461c0.70312 0 1.2773 0.57031 1.2773 1.2773v31.461c0 0.86719-1.543 2.0703-2.5039 3.0352h19.449c0.70313 0 1.2773 0.57031 1.2773 1.2773v32.773c0 0.35938-0.14844 0.68359-0.39062 0.91797l-12.742 12.742c-0.23047 0.23828-0.55859 0.39062-0.91797 0.39062h-32.773c-0.70313 0-1.2773-0.57031-1.2773-1.2773v-6.0508l-6.9453 6.9453c-0.24219 0.24219-0.56641 0.37891-0.91016 0.37891l-32.773-0.003906c-0.70313 0-1.2734-0.57031-1.2734-1.2773v-32.773c0-0.35937 0.14844-0.68359 0.39062-0.91797l12.742-12.742c0.23047-0.23828 0.55859-0.39062 0.91797-0.39062h11.457zm41.219 2.5508-3.8359 3.8359h18.922l3.8359-3.8359zm-33.953 12.773h-6.7305v16.512c0 0.99609-1.1328 1.6836-2.0625 1.0039l-6.3203-4.3203-6.3867 4.3672c-0.85156 0.58203-1.9922-0.050781-1.9922-1.0508v-16.512h-6.7305v30.223h30.223zm-9.2812 0h-11.66v14.098l5.0898-3.4805c0.42188-0.30078 1.0039-0.32422 1.457-0.015625l5.1133 3.4961zm51.184 0v30.223h-30.223v-30.223h6.7305v16.512c0 1.1094 1.0781 1.6758 1.9922 1.0508l6.3867-4.3672 6.3203 4.3203c0.92969 0.67969 2.0625-0.007813 2.0625-1.0039v-16.512zm-9.2812 0h-11.66v14.098l5.0898-3.4805c0.42188-0.30078 1.0039-0.32422 1.457-0.015625l5.1133 3.4961zm11.832-0.74609 10.223-10.223v29.168l-10.223 10.223z" fill-rule="evenodd"/>
</svg>