<svg xmlns="http://www.w3.org/2000/svg" version="1.1" viewBox="-5.0 -10.0 110.0 135.0">
 <path d="m27.574 52.766c-5.0273 0-9.8477 2-13.402 5.5547-3.5547 3.5586-5.5508 8.3789-5.5508 13.406 0 5.0312 1.9961 9.8516 5.5547 13.406 3.5547 3.5547 8.3789 5.5508 13.406 5.5508 5.0273 0 9.8477-2 13.402-5.5547 3.5547-3.5547 5.5547-8.3789 5.5508-13.406 0-5.0273-1.9961-9.8477-5.5547-13.406-3.5547-3.5547-8.375-5.5508-13.406-5.5508zm11.465 30.422h0.003907c-3.043 3.043-7.1641 4.75-11.465 4.75s-8.4258-1.707-11.465-4.7461c-3.043-3.043-4.75-7.1641-4.75-11.465 0-4.3008 1.707-8.4258 4.75-11.465 3.0391-3.043 7.1641-4.75 11.465-4.75s8.4219 1.7109 11.465 4.75c3.0391 3.0391 4.7461 7.1641 4.7461 11.465 0 4.2969-1.707 8.4219-4.7461 11.461z"/>
 <path d="m28.945 68.172v-8.0547c0-0.75781-0.61328-1.375-1.3711-1.375-0.75781 0-1.375 0.61719-1.375 1.375v8.0547c-0.96875 0.37891-1.7422 1.1328-2.1406 2.0977-0.39844 0.96094-0.38672 2.043 0.035156 2.9961l-2.4961 2.4961c-0.53516 0.53516-0.53516 1.4023 0 1.9375 0.53516 0.53516 1.4023 0.53516 1.9414 0.003906l2.4961-2.4961c0.9375 0.41406 2.0039 0.43359 2.957 0.054688 0.95312-0.38281 1.7109-1.1328 2.1016-2.082 0.39453-0.94531 0.38672-2.0117-0.015625-2.957-0.40625-0.94141-1.1758-1.6836-2.1328-2.0508zm-2.1211 4.3047c-0.25-0.25-0.35938-0.60937-0.28906-0.95703 0.066406-0.34766 0.30469-0.63672 0.63281-0.77344 0.32422-0.13672 0.69922-0.097656 0.99219 0.097656 0.29688 0.19531 0.47266 0.52344 0.47656 0.87891 0 0.42969-0.25781 0.82031-0.65625 0.98438-0.39453 0.16797-0.85547 0.074219-1.1562-0.23047z"/>
 <path d="m78.043 56.328h8.7617c0.75781 0 1.375-0.61328 1.375-1.3711v-7.2109c0-0.75781-0.61719-1.3711-1.375-1.3672h-8.7617c-0.75781-0.003906-1.375 0.60938-1.375 1.3672v7.2109c0.003906 0.75781 0.61719 1.3711 1.375 1.3711zm1.3711-7.2031h6.0195v4.457h-6.0195z"/>
 <path d="m24.09 33.219v7.2109c-0.003906 0.36328 0.14062 0.71094 0.39844 0.96875 0.25781 0.25781 0.60547 0.40234 0.96875 0.40234h8.7695c0.36328 0 0.71094-0.14453 0.96875-0.40234 0.25781-0.25781 0.39844-0.60547 0.39844-0.96875v-7.2109c0-0.36328-0.14062-0.71094-0.39844-0.96875-0.25781-0.25781-0.60547-0.40234-0.96875-0.40234h-8.7695c-0.36328 0-0.71094 0.14453-0.96875 0.40234-0.25781 0.25781-0.40234 0.60547-0.39844 0.96875zm2.7461 1.375h6.0156v4.457l-6.0195 0.003907z"/>
 <path d="m42.988 41.801h8.7656c0.36328 0 0.71094-0.14453 0.96875-0.40234 0.25781-0.25781 0.40234-0.60547 0.40234-0.96875v-7.2109c0-0.36328-0.14453-0.71094-0.40234-0.96875-0.25781-0.25781-0.60547-0.40234-0.96875-0.40234h-8.7656c-0.36328 0-0.71484 0.14453-0.97266 0.40234-0.25391 0.25781-0.39844 0.60547-0.39844 0.96875v7.2109c0 0.36328 0.14453 0.71094 0.39844 0.96875 0.25781 0.25781 0.60938 0.40234 0.97266 0.40234zm1.375-7.2031h6.0156v4.457h-6.0156z"/>
 <path d="m92.324 9.7695h-5.2734v-1.0039c0-2.7266-2.2109-4.9375-4.9414-4.9375-2.7266 0-4.9375 2.2109-4.9375 4.9375v1l-7.5273 0.003906v-1.0039c0-2.7266-2.2109-4.9375-4.9375-4.9375-2.7266 0-4.9375 2.2109-4.9375 4.9375v1h-7.5312v-1c0-2.7266-2.2109-4.9336-4.9375-4.9336-2.7266 0-4.9375 2.207-4.9375 4.9336v1h-7.5312v-1c0-2.7266-2.2109-4.9375-4.9375-4.9375-2.7266 0-4.9414 2.2109-4.9414 4.9375v1l-5.2734 0.003906c-2.5117 0-4.5469 2.0391-4.5508 4.5508v36.348c-6.5312 3.8633-10.898 10.543-11.824 18.074-0.92188 7.5312 1.7031 15.066 7.1055 20.395 5.4062 5.3281 12.977 7.8438 20.496 6.8086 7.5195-1.0312 14.129-5.4961 17.898-12.082h32.539c0.75781 0 1.375-0.61328 1.375-1.3711 0-0.76172-0.61719-1.375-1.375-1.375h-31.188c0.37109-0.89063 0.69141-1.8047 0.95312-2.7344h26.934c0.35156 0.003907 0.6875-0.13281 0.94141-0.375l15.145-12.711v14.023c-0.003906 0.99219-0.80469 1.793-1.7969 1.7969h-5.4922c-0.75781 0-1.3711 0.61719-1.3711 1.375 0 0.75781 0.61328 1.3711 1.3711 1.3711h5.4922c2.5078-0.003906 4.5391-2.0352 4.543-4.543v-65c-0.003906-2.5117-2.0391-4.5508-4.5508-4.5508zm-12.406-1.0039c0-0.88281 0.53516-1.6836 1.3555-2.0195 0.81641-0.33984 1.7578-0.15234 2.3867 0.47266 0.75781 0.75781 0.64453 1.5664 0.64453 2.5469h-4.3867zm-17.402 0h-0.003906c0.003906-0.88281 0.53906-1.6836 1.3555-2.0195 0.82031-0.33984 1.7617-0.15234 2.3906 0.47266 0.75781 0.75781 0.63672 1.5664 0.63672 2.5469l-4.3828 0.003906zm-17.402 0h-0.003906c0-0.88281 0.53516-1.6797 1.3516-2.0195 0.82031-0.33984 1.7617-0.15234 2.3867 0.47266 0.76172 0.75781 0.64453 1.5664 0.64453 2.5469l-4.3828 0.003906zm-17.41 0h-0.003906c0.003906-0.88281 0.53906-1.6836 1.3555-2.0195 0.82031-0.33984 1.7617-0.15234 2.3867 0.47266 0.75781 0.75781 0.64453 1.5664 0.64453 2.5469l-4.3867 0.003906zm15.223 78.305c-4.0703 4.0703-9.5938 6.3594-15.352 6.3594-5.7539 0-11.277-2.2891-15.348-6.3594-4.0703-4.0703-6.3555-9.5898-6.3555-15.348 0-5.7578 2.2852-11.277 6.3555-15.348 4.0703-4.0703 9.5938-6.3594 15.348-6.3594 5.7578 0 11.281 2.2891 15.352 6.3594 4.0703 4.0703 6.3555 9.5898 6.3555 15.348 0 5.7578-2.2852 11.277-6.3555 15.348zm36.488-13v-10.418h12.41zm14.715-49.746h-65.008c-0.75781 0-1.3711 0.61328-1.3711 1.3711 0 0.75781 0.61328 1.3711 1.3711 1.3711h65.008v33.84h-16.086c-0.75781 0-1.3711 0.61328-1.375 1.3711v13.359h-24.949c1.1133-6.875-0.75781-13.898-5.1445-19.309h5.1797c0.36328 0 0.71094-0.14453 0.96875-0.40234 0.25781-0.25781 0.40234-0.60547 0.40234-0.96875v-7.2109c0-0.36328-0.14453-0.71094-0.40234-0.96875-0.25781-0.25781-0.60547-0.40234-0.96875-0.39844h-8.7656c-0.36328-0.003906-0.71484 0.14062-0.97266 0.39844-0.25391 0.25781-0.39844 0.60547-0.39844 0.96875v3.957c-6.957-4.875-15.941-5.7969-23.742-2.4336v-22.199l5.7578-0.003906c0.75781 0 1.3711-0.61328 1.3711-1.3711 0-0.75781-0.61328-1.3711-1.3711-1.3711h-5.7578v-10.004c0.003906-0.99609 0.80859-1.8047 1.8047-1.8047h5.2734v2.3398c0.003906 2.7266 2.2148 4.9375 4.9414 4.9375 0.76172 0 1.375-0.61719 1.375-1.375 0-0.75781-0.61328-1.3711-1.375-1.3711-0.57812 0-1.1367-0.23047-1.5508-0.64062-0.41016-0.41016-0.64453-0.96875-0.64453-1.5508v-2.3398h14.664v2.3398c0 2.7266 2.2109 4.9336 4.9375 4.9375 0.75781 0 1.3711-0.61719 1.3711-1.375 0-0.75781-0.61328-1.3711-1.3711-1.3711-1.2109 0-2.1914-0.98047-2.1914-2.1914v-2.3398h14.656v2.3398c0.003906 2.7266 2.2109 4.9336 4.9375 4.9375 0.75781 0 1.375-0.61719 1.375-1.375 0-0.75781-0.61719-1.3711-1.375-1.3711-1.207 0-2.1914-0.98047-2.1914-2.1914v-2.3398h14.656l0.003906 2.3398c0 2.7266 2.2148 4.9375 4.9414 4.9375 0.75781 0 1.3711-0.61719 1.3711-1.375 0-0.75781-0.61328-1.3711-1.3711-1.3711-0.58203 0-1.1406-0.23047-1.5508-0.64062-0.41406-0.41016-0.64453-0.96875-0.64453-1.5508v-2.3398h12.406c0.99609 0 1.8008 0.80859 1.8047 1.8047zm-49.766 29.258v-4.4609h6.0156v4.457z"/>
 <path d="m60.516 41.801h8.7617c0.36328 0 0.71484-0.14453 0.97266-0.40234 0.25781-0.25391 0.40234-0.60547 0.40234-0.96875v-7.2109c0-0.36328-0.14453-0.71484-0.40234-0.96875-0.25781-0.25781-0.60938-0.40234-0.97266-0.40234h-8.7617c-0.75781 0-1.375 0.61328-1.375 1.3711v7.2109c0 0.75781 0.61719 1.3711 1.375 1.3711zm1.375-7.2031h6.0156v4.457h-6.0156z"/>
 <path d="m60.516 70.855h8.7617c0.36328 0 0.71484-0.14062 0.97266-0.39844 0.25781-0.25781 0.40234-0.60547 0.40234-0.97266v-7.207c0-0.36719-0.14453-0.71484-0.40234-0.97266-0.25781-0.25781-0.60938-0.40234-0.97266-0.39844h-8.7617c-0.75781 0-1.375 0.61328-1.375 1.3711v7.2109-0.003906c0 0.75781 0.61719 1.3711 1.375 1.3711zm1.375-7.2031h6.0156v4.457h-6.0156z"/>
 <path d="m78.043 41.801h8.7617c0.75781 0 1.375-0.61328 1.375-1.3711v-7.2109c0-0.75781-0.61719-1.3711-1.375-1.3711h-8.7617c-0.75781 0-1.3711 0.61328-1.375 1.3711v7.2109c0.003906 0.75781 0.61719 1.3711 1.375 1.3711zm1.3711-7.2031h6.0195v4.457h-6.0195z"/>
 <path d="m60.516 56.328h8.7617c0.36328 0 0.71484-0.14453 0.97266-0.39844 0.25781-0.25781 0.40234-0.60938 0.40234-0.97266v-7.2109c0-0.36328-0.14453-0.71094-0.40234-0.96875-0.25781-0.25781-0.60938-0.40234-0.97266-0.39844h-8.7617c-0.75781-0.003906-1.375 0.60938-1.375 1.3672v7.2109c0 0.75781 0.61719 1.3711 1.375 1.3711zm1.375-7.2031h6.0156v4.457h-6.0156z"/>
</svg>