<svg xmlns="http://www.w3.org/2000/svg" version="1.1" viewBox="-5.0 -10.0 110.0 125.0">
 <path d="m49.973 8.6016v0.003907c-0.76953-0.003907-1.5 0.15625-2.1641 0.44922l-0.007813 0.003906c-5.8398 2.1016-11.73 4.2656-17.137 6.8164-5.2695 2.4883-10.059 5.332-14.727 8.168v0.003906c-1.5312 0.94531-2.5508 2.6406-2.5508 4.5742v0.15625c0.125 14.496 0.45312 29.469 6.2461 40.016 5.8477 10.648 17.109 16.578 27.949 22.02l0.039063 0.023438c0.71875 0.35156 1.5234 0.55078 2.3789 0.55078 0.87109 0 1.6953-0.20703 2.4219-0.57422v-0.003906c10.836-5.4414 22.094-11.371 27.941-22.016l0.007813-0.011719c5.7891-10.547 6.1172-25.496 6.2383-39.992v-0.16797c0-1.9336-1.0234-3.625-2.5547-4.5742l-0.015626-0.011719c-4.6602-2.8359-9.4453-5.6758-14.707-8.1602h-0.003906c-5.5195-2.6055-11.543-4.8086-17.508-6.957h-0.003906c-0.57422-0.21094-1.1953-0.31641-1.8438-0.31641v0.003907-0.003907 0.003907zm0 3.8906v0.003906c0.23047-0.003906 0.45703 0.039062 0.65234 0.12891l0.007812 0.003906c5.9297 2.1328 11.738 4.2617 17.035 6.7617l0.003906 0.003906c5.0703 2.3906 9.6992 5.1367 14.348 7.9609v0.003906c0.42188 0.26172 0.70312 0.73047 0.70312 1.2617 0 0.027344-0.003906 0.082031-0.003906 0.082031-0.12891 14.754-0.51172 28.652-5.7656 38.219-5.1992 9.4688-15.32 14.902-26.324 20.438h-0.003906c-0.19141 0.085937-0.39844 0.13672-0.625 0.13672-0.24219 0-0.47656-0.054688-0.67969-0.15625-10.988-5.5312-21.086-10.961-26.277-20.418-5.2539-9.5664-5.6367-23.465-5.7695-38.219v-0.082031c0-0.53125 0.28125-1 0.70312-1.2617v-0.003906c4.6484-2.8242 9.2734-5.5664 14.344-7.9609h0.003907c5.2734-2.4922 11.059-4.6172 16.965-6.7422 0.18359-0.066406 0.25781-0.09375 0.25781-0.09375 0.13672-0.042969 0.27734-0.066406 0.42578-0.066406z"/>
</svg>