<svg xmlns="http://www.w3.org/2000/svg" version="1.1" viewBox="-5.0 -10.0 110.0 135.0">
 <g>
  <path d="m28.648 6.25c-7.4141 0-13.492 6.0547-13.492 13.469v60.535c0 7.418 6.0781 13.496 13.492 13.496h42.703c7.4141 0 13.492-6.0781 13.492-13.496v-60.535c0-7.4141-6.0781-13.469-13.492-13.469zm0 6.2578h11.488v7.4922h-18.73v-0.28125c0-4.0586 3.1836-7.2109 7.2422-7.2109zm17.719 0h24.984c4.0586 0 7.2422 3.1523 7.2422 7.2109v0.28125h-32.227zm-24.961 13.742h57.188v54.004c0 4.0625-3.1836 7.2461-7.2422 7.2461h-42.703c-4.0586 0-7.2422-3.1836-7.2422-7.2461z"/>
  <path d="m50 34.863c-11.457 0-20.809 9.3555-20.809 20.812 0.003906 11.453 9.3555 20.805 20.809 20.809 11.453-0.003906 20.805-9.3555 20.809-20.809 0-11.457-9.3516-20.812-20.809-20.812zm0 6.25c8.0781 0 14.559 6.4844 14.559 14.562-0.003906 8.0781-6.4805 14.555-14.559 14.559-8.0781-0.003906-14.555-6.4805-14.559-14.559 0-8.0781 6.4805-14.562 14.559-14.562z"/>
  <path d="m53.172 13.012c-0.82812 0-1.6211 0.33203-2.207 0.92188-0.58203 0.58984-0.91016 1.3867-0.90625 2.2148 0.003906 1.7188 1.3984 3.1094 3.1133 3.1133h2.5391c1.7148-0.003907 3.1094-1.3945 3.1133-3.1133 0.003906-0.82813-0.32422-1.625-0.90625-2.2148-0.58594-0.58984-1.3789-0.92188-2.207-0.92188z"/>
  <path d="m65.469 13.012c-0.82812 0-1.625 0.33203-2.207 0.92188-0.58594 0.58984-0.91016 1.3867-0.90625 2.2148 0.003906 1.7188 1.3945 3.1094 3.1133 3.1133h2.5352c1.7188-0.003907 3.1094-1.3945 3.1172-3.1133 0.003906-0.82813-0.32422-1.625-0.91016-2.2148-0.58203-0.58984-1.375-0.92188-2.207-0.92188z"/>
  <path d="m49.988 43.047c-1.7148 0.003906-3.1055 1.3945-3.1133 3.1133-0.003906 0.82812 0.32422 1.625 0.90625 2.2148 0.58594 0.58594 1.3789 0.91797 2.207 0.92188 3.5625 0 6.3906 2.8047 6.3906 6.3672-0.003906 0.83203 0.32812 1.6328 0.91406 2.2227 0.58984 0.58984 1.3906 0.91797 2.2227 0.91406 0.82812-0.003906 1.625-0.33594 2.207-0.92188 0.58594-0.58984 0.91016-1.3867 0.90625-2.2148 0-6.9414-5.6992-12.617-12.641-12.617z"/>
 </g>
</svg>