<svg xmlns="http://www.w3.org/2000/svg" xmlns:xlink="http://www.w3.org/1999/xlink" version="1.1" x="0px" y="0px" viewBox="0 0 96 120" style="enable-background:new 0 0 96 96;" xml:space="preserve"><style type="text/css">
	.st0{fill-rule:evenodd;clip-rule:evenodd;}
</style><path class="st0" d="M63.721,33.619c-16.598,0-30.102,13.504-30.102,30.102s13.504,30.102,30.102,30.102  s30.102-13.504,30.102-30.102S80.319,33.619,63.721,33.619z M63.721,91.226c-15.166,0-27.505-12.338-27.505-27.504  s12.339-27.505,27.505-27.505s27.505,12.339,27.505,27.505S78.887,91.226,63.721,91.226z M63.721,39.307  c-13.462,0-24.415,10.952-24.415,24.414s10.952,24.414,24.415,24.414s24.414-10.952,24.414-24.414S77.183,39.307,63.721,39.307z   M63.721,85.538c-12.03,0-21.817-9.787-21.817-21.817c0-12.03,9.787-21.817,21.817-21.817c12.03,0,21.817,9.787,21.817,21.817  C85.538,75.751,75.751,85.538,63.721,85.538z M71.723,68.341c-0.241,0.417-0.677,0.649-1.126,0.649c-0.22,0-0.444-0.056-0.648-0.174  l-5.733-3.31c-0.158,0.044-0.324,0.069-0.496,0.069c-1.022,0-1.855-0.833-1.855-1.855c0-0.517,0.214-0.985,0.557-1.322V51.976  c0-0.717,0.581-1.299,1.299-1.299c0.717,0,1.299,0.581,1.299,1.299v10.423c0.237,0.232,0.41,0.528,0.495,0.858l5.733,3.31  C71.869,66.926,72.082,67.72,71.723,68.341z M51.703,75.739c0.507,0.507,0.507,1.329,0,1.837l-0.896,0.896  c-0.254,0.254-0.586,0.38-0.918,0.38s-0.665-0.127-0.918-0.38c-0.507-0.507-0.507-1.329,0-1.837l0.896-0.896  C50.373,75.232,51.196,75.232,51.703,75.739z M62.422,45.426v-1.267c0-0.717,0.581-1.299,1.299-1.299  c0.717,0,1.299,0.581,1.299,1.299v1.267c0,0.717-0.581,1.299-1.299,1.299C63.004,46.725,62.422,46.143,62.422,45.426z   M46.725,63.721c0,0.717-0.581,1.299-1.299,1.299h-1.267c-0.717,0-1.299-0.581-1.299-1.299c0-0.717,0.581-1.299,1.299-1.299h1.267  C46.143,62.422,46.725,63.004,46.725,63.721z M78.472,48.97c0.507,0.507,0.507,1.329,0,1.837l-0.896,0.896  c-0.253,0.253-0.586,0.38-0.918,0.38c-0.332,0-0.665-0.127-0.918-0.38c-0.507-0.507-0.507-1.329,0-1.837l0.896-0.896  C77.142,48.463,77.965,48.463,78.472,48.97z M84.582,63.721c0,0.717-0.581,1.299-1.299,1.299h-1.267  c-0.717,0-1.299-0.581-1.299-1.299c0-0.717,0.581-1.299,1.299-1.299h1.267C84,62.422,84.582,63.004,84.582,63.721z M51.703,49.866  c0.507,0.507,0.507,1.329,0,1.837c-0.253,0.253-0.586,0.38-0.918,0.38c-0.332,0-0.665-0.127-0.918-0.38l-0.896-0.896  c-0.507-0.507-0.507-1.329,0-1.837c0.507-0.507,1.33-0.507,1.837,0L51.703,49.866z M65.02,82.016v1.267  c0,0.717-0.581,1.299-1.299,1.299c-0.717,0-1.299-0.581-1.299-1.299v-1.267c0-0.717,0.581-1.299,1.299-1.299  C64.438,80.717,65.02,81.299,65.02,82.016z M78.472,76.635c0.507,0.507,0.507,1.329,0,1.837c-0.254,0.254-0.586,0.38-0.918,0.38  s-0.665-0.127-0.918-0.38l-0.896-0.896c-0.507-0.507-0.507-1.329,0-1.837c0.507-0.507,1.33-0.507,1.837,0L78.472,76.635z   M57.214,30.395h13.015c0.717,0,1.299-0.581,1.299-1.299v-8.645c0-4.304-3.502-7.806-7.806-7.806s-7.806,3.502-7.806,7.806v8.645  C55.915,29.813,56.496,30.395,57.214,30.395z M58.512,27.798V26.55H68.93v1.248H58.512z M63.721,15.242  c2.872,0,5.209,2.337,5.209,5.209v3.501h-3.91v-3.603c0-0.717-0.581-1.299-1.299-1.299c-0.717,0-1.299,0.581-1.299,1.299v3.603  h-3.91v-3.501C58.512,17.579,60.849,15.242,63.721,15.242z M44.378,21.52c0-0.717,0.581-1.299,1.299-1.299h4.902  c0.717,0,1.299,0.581,1.299,1.299s-0.581,1.299-1.299,1.299h-4.902C44.96,22.819,44.378,22.237,44.378,21.52z M62.422,8.378V3.476  c0-0.717,0.581-1.299,1.299-1.299c0.717,0,1.299,0.581,1.299,1.299v4.902c0,0.717-0.581,1.299-1.299,1.299  C63.004,9.676,62.422,9.095,62.422,8.378z M76.863,20.221h4.902c0.717,0,1.299,0.581,1.299,1.299s-0.581,1.299-1.299,1.299h-4.902  c-0.717,0-1.299-0.581-1.299-1.299S76.146,20.221,76.863,20.221z M72.096,13.145c-0.507-0.507-0.507-1.329,0-1.837l3.466-3.466  c0.507-0.507,1.33-0.507,1.837,0c0.507,0.507,0.507,1.329,0,1.837l-3.466,3.466c-0.254,0.254-0.586,0.38-0.918,0.38  C72.682,13.526,72.349,13.399,72.096,13.145z M50.044,9.679c-0.507-0.507-0.507-1.329,0-1.837c0.507-0.507,1.329-0.507,1.837,0  l3.466,3.466c0.507,0.507,0.507,1.329,0,1.837c-0.253,0.254-0.586,0.38-0.918,0.38c-0.332,0-0.665-0.127-0.918-0.38L50.044,9.679z   M32.568,53.557c0,0.717-0.581,1.299-1.299,1.299H20.904c-0.717,0-1.299-0.581-1.299-1.299s0.581-1.299,1.299-1.299H31.27  C31.987,52.258,32.568,52.839,32.568,53.557z M10.264,43.392c0-0.717,0.581-1.299,1.299-1.299h24.907  c0.717,0,1.299,0.581,1.299,1.299c0,0.717-0.581,1.299-1.299,1.299H11.562C10.845,44.691,10.264,44.11,10.264,43.392z M37.768,84.05  c0,0.717-0.581,1.299-1.299,1.299H11.562c-0.717,0-1.299-0.581-1.299-1.299c0-0.717,0.581-1.299,1.299-1.299h24.907  C37.186,82.751,37.768,83.332,37.768,84.05z M29.723,65.02H3.476c-0.717,0-1.299-0.581-1.299-1.299c0-0.717,0.581-1.299,1.299-1.299  h26.247c0.717,0,1.299,0.581,1.299,1.299C31.022,64.438,30.441,65.02,29.723,65.02z M13.81,75.184H5.299  C4.582,75.184,4,74.603,4,73.885s0.581-1.299,1.299-1.299h8.511c0.717,0,1.299,0.581,1.299,1.299S14.527,75.184,13.81,75.184z   M32.568,73.885c0,0.717-0.581,1.299-1.299,1.299H20.904c-0.717,0-1.299-0.581-1.299-1.299s0.581-1.299,1.299-1.299H31.27  C31.987,72.587,32.568,73.168,32.568,73.885z M4,53.557c0-0.717,0.581-1.299,1.299-1.299h8.511c0.717,0,1.299,0.581,1.299,1.299  s-0.581,1.299-1.299,1.299H5.299C4.582,54.855,4,54.274,4,53.557z"/></svg>