<svg xmlns="http://www.w3.org/2000/svg" version="1.1" viewBox="-5.0 -10.0 110.0 135.0">
 <path d="m32.691 34.816c0.92969-8.7305 8.3359-15.555 17.309-15.555s16.383 6.8242 17.309 15.555h7.1367c7.1484 0 12.965 5.8164 12.965 12.965s-5.8164 12.965-12.965 12.965h-10c-1.0234 0-1.8516-0.82812-1.8516-1.8516 0-1.0234 0.82812-1.8516 1.8516-1.8516h10c5.1055 0 9.2578-4.1523 9.2578-9.2578 0-5.1055-4.1523-9.2578-9.2578-9.2578h-8.8906c-1.0234 0-1.8516-0.82812-1.8516-1.8516 0-7.5547-6.1484-13.703-13.703-13.703s-13.703 6.1484-13.703 13.703c0 1.0234-0.82812 1.8516-1.8516 1.8516h-8.8906c-5.1055 0-9.2578 4.1523-9.2578 9.2578 0 5.1055 4.1523 9.2578 9.2578 9.2578h11.109c1.0234 0 1.8516 0.82812 1.8516 1.8516 0 1.0234-0.82812 1.8516-1.8516 1.8516h-11.109c-7.1484 0-12.965-5.8164-12.965-12.965s5.8164-12.965 12.965-12.965zm29.746-16.625c2.6016-2.6562 6.0781-4.1172 9.7891-4.1172 7.5547 0 13.703 6.1445 13.703 13.703 0 2.0547-0.44531 4.0312-1.3203 5.8711-0.4375 0.92578-0.046875 2.0312 0.875 2.4688 0.25781 0.12109 0.52734 0.17969 0.79297 0.17969 0.69141 0 1.3555-0.39062 1.6719-1.0547 1.1133-2.3438 1.6797-4.8555 1.6797-7.4648 0-9.5977-7.8086-17.406-17.406-17.406-4.7148 0-9.1289 1.8555-12.434 5.2305-0.71484 0.73047-0.70312 1.9023 0.027344 2.6172 0.73047 0.71484 1.9023 0.70703 2.6172-0.027344zm-52.062-1.6172c0-6.293 4.4844-11.691 10.664-12.84 0.60547-0.10938 1.2148 0.082031 1.6484 0.51172 0.42969 0.42969 0.62109 1.0469 0.51172 1.6445-0.10547 0.56641-0.15625 1.1445-0.15625 1.7148 0 5.1562 4.1953 9.3555 9.3555 9.3555 0.57422 0 1.1523-0.054688 1.7148-0.15625 0.59766-0.11328 1.2148 0.078124 1.6445 0.51172 0.42969 0.42969 0.62109 1.0469 0.51172 1.6484-1.1484 6.1797-6.5469 10.664-12.84 10.664-7.1992 0-13.059-5.8555-13.059-13.059zm3.7031 0c0 5.1562 4.1953 9.3555 9.3555 9.3555 3.6562 0 6.8906-2.1133 8.4219-5.2695-6.7695-0.27734-12.223-5.7344-12.5-12.5-3.1602 1.5312-5.2695 4.7656-5.2695 8.4219zm29.684 70.754 4.0859-16.336-7.5625-3.7812c-0.45312-0.22656-0.79297-0.62891-0.94141-1.1172s-0.089844-1.0117 0.16016-1.4531l8.8906-15.715c0.33203-0.58984 0.95703-0.92188 1.6406-0.94141l11.109 0.15625c0.63672 0.007813 1.2266 0.34766 1.5547 0.89062s0.35938 1.2188 0.074219 1.7891l-5.7109 11.426 4.6406 1.5469c0.55469 0.18359 0.99219 0.62109 1.1758 1.1758s0.09375 1.1641-0.24219 1.6445l-15.555 22.223c-0.35547 0.50781-0.92969 0.78906-1.5195 0.78906-0.25781 0-0.51953-0.054688-0.76953-0.16797-0.8125-0.37109-1.2461-1.2695-1.0273-2.1328zm7.0703-18.984c0.77734 0.38672 1.1797 1.2617 0.96875 2.1055l-2.0156 8.0625 8.3906-11.984-4.3125-1.4375c-0.50781-0.17188-0.92188-0.55078-1.125-1.0469-0.20703-0.49609-0.18359-1.0586 0.054688-1.5352l5.3477-10.695-7.0625-0.10156-7.3906 13.062zm17.414-1.1484-2.2227 6.668c-0.32422 0.96875 0.19922 2.0195 1.1719 2.3438 0.19141 0.066407 0.39063 0.097657 0.58594 0.097657 0.77734 0 1.5-0.49219 1.7578-1.2695l2.2227-6.668c0.32422-0.96875-0.19922-2.0195-1.1719-2.3438-0.96875-0.32422-2.0195 0.20312-2.3438 1.1719zm-48.891 0-2.2227 6.668c-0.32422 0.96875 0.19922 2.0195 1.1719 2.3438 0.19141 0.066407 0.39062 0.097657 0.58594 0.097657 0.77734 0 1.5-0.49219 1.7578-1.2695l2.2227-6.668c0.32422-0.96875-0.19922-2.0195-1.1719-2.3438-0.96875-0.32422-2.0195 0.20312-2.3438 1.1719zm41.172 29.008c0.19531 0.066406 0.39453 0.097656 0.58594 0.097656 0.77734 0 1.5-0.49219 1.7578-1.2656l2.2227-6.668c0.32422-0.96875-0.19922-2.0195-1.1719-2.3438-0.97266-0.32422-2.0195 0.20312-2.3438 1.1719l-2.2227 6.668c-0.32422 0.96875 0.19922 2.0195 1.1719 2.3438zm-47.84-9.0078-2.2227 6.668c-0.32422 0.96875 0.19922 2.0195 1.1719 2.3438 0.19141 0.066407 0.39062 0.097657 0.58594 0.097657 0.77734 0 1.5-0.49219 1.7578-1.2695l2.2227-6.668c0.32422-0.96875-0.19922-2.0195-1.1719-2.3438-0.96875-0.32422-2.0195 0.20312-2.3438 1.1719zm68.891-20-2.2227 6.668c-0.32422 0.96875 0.19922 2.0195 1.1719 2.3438 0.19531 0.066407 0.39453 0.097657 0.58594 0.097657 0.77734 0 1.5-0.49219 1.7578-1.2656l2.2227-6.668c0.32422-0.96875-0.19922-2.0195-1.1719-2.3438-0.97656-0.32422-2.0195 0.20312-2.3438 1.1719zm-48.891 0-2.2227 6.668c-0.32422 0.96875 0.19922 2.0195 1.1719 2.3438 0.19531 0.066407 0.39453 0.097657 0.58594 0.097657 0.77734 0 1.5-0.49219 1.7578-1.2656l2.2227-6.668c0.32422-0.96875-0.19922-2.0195-1.1719-2.3438-0.97266-0.32422-2.0195 0.20312-2.3438 1.1719zm43.516 27.836 2.2227-6.668c0.32422-0.96875-0.19922-2.0195-1.1719-2.3438-0.96875-0.32422-2.0195 0.20312-2.3438 1.1719l-2.2227 6.668c-0.32422 0.96875 0.19922 2.0195 1.1719 2.3438 0.19141 0.066406 0.39062 0.097656 0.58594 0.097656 0.77734 0 1.5-0.49219 1.7578-1.2695zm-48.891 0 2.2227-6.668c0.32422-0.96875-0.19922-2.0195-1.1719-2.3438-0.97656-0.32422-2.0195 0.20312-2.3438 1.1719l-2.2227 6.668c-0.32422 0.96875 0.19922 2.0195 1.1719 2.3438 0.19531 0.066406 0.39453 0.097656 0.58594 0.097656 0.77734 0 1.5-0.49219 1.7578-1.2656z"/>
</svg>