<svg xmlns="http://www.w3.org/2000/svg" version="1.1" viewBox="-5.0 -10.0 110.0 135.0">
 <path d="m87.668 91.016 2.6953-21.809c0.13672-1.0977-0.64453-2.0938-1.7383-2.2305-1.0938-0.12891-2.0938 0.64453-2.2305 1.7383l-2.6953 21.809c-0.011719 0.089843-0.085938 0.15234-0.17578 0.15234l-26.371 0.003907c-0.089844 0-0.16406-0.066407-0.17578-0.15234l-5.418-43.816h37.559l-1.2656 10.23c-0.13672 1.0977 0.64453 2.0938 1.7383 2.2305 1.0977 0.13281 2.0938-0.64453 2.2305-1.7383l1.543-12.48c0.070313-0.56641-0.10547-1.1406-0.48438-1.5703-0.37891-0.42969-0.92578-0.67578-1.5-0.67578h-42.082c-0.57422 0-1.1172 0.24609-1.5 0.67578-0.37891 0.42969-0.55859 1-0.48438 1.5703l5.6953 46.062c0.25781 2.0898 2.0391 3.6641 4.1445 3.6641h26.367c2.1055 0 3.8906-1.5742 4.1484-3.6641z"/>
 <path d="m92.996 67.32c0.6875 0 1.3594-0.35547 1.7305-0.99219 0.55469-0.95312 0.23047-2.1797-0.72266-2.7344l-22.66-13.188c-0.95312-0.55469-2.1797-0.23047-2.7344 0.72266s-0.23047 2.1797 0.72266 2.7344l22.664 13.188c0.31641 0.18359 0.66016 0.26953 1 0.26953z"/>
 <path d="m7 86.277h41.562c1.1055 0 2-0.89453 2-2 0-1.1055-0.89453-2-2-2h-34.176v-5.0508c0-0.73047 0.59766-1.3281 1.3281-1.3281h30.941c1.1055 0 2-0.89453 2-2 0-1.1055-0.89453-2-2-2h-11.195v-64.578c0-1.1055-0.89453-2-2-2-1.1055 0-2 0.89453-2 2v64.578h-15.746c-2.9375 0-5.3281 2.3906-5.3281 5.3281v5.0508h-3.3867c-1.1055 0-2 0.89453-2 2 0 1.1055 0.89453 2 2 2z"/>
</svg>