<svg xmlns="http://www.w3.org/2000/svg" version="1.1" viewBox="-5.0 -10.0 110.0 135.0">
 <path d="m83.441 88v-81.285h-39.066v18.102l-27.816-0.003906v63.188h-6.5586v4h80v-4zm-4-77.285v5.4609h-31.066v-5.4609zm-42.938 77.285v-11.824h7.8711v11.824zm11.871 0v-15.824h-15.871v15.824h-11.945v-22.898h6.6172v-4h-6.6172v-7.8828h6.6172v-4h-6.6172v-7.8789h6.6172v-4h-6.6172v-8.5312h39.762v8.5273l-6.6211 0.003906v4h6.6172v7.8789h-6.6172v4h6.6172v7.8828h-6.6172v4h6.6172v22.898zm15.945 0v-63.191h-15.945v-4.6328h31.066v67.824zm-32.047-50.66h16.332v4h-16.332zm36-12.203 6.4258-0.003907v4h-6.4258zm0 11.879 6.4258-0.003906v4h-6.4258zm0 11.879 6.4258-0.003906v4h-6.4258zm0 11.879 6.4258-0.003907v4h-6.4258zm0 12.203 6.4258-0.003906v4h-6.4258zm-36-23.758h16.332v4h-16.332zm0 11.879h16.332v4h-16.332z"/>
</svg>