<svg xmlns="http://www.w3.org/2000/svg" style="enable-background:new -13 15 100 100; transform: scale(1.65)" version="1.1" viewBox="-5.0 -10.0 110.0 135.0">
 <path d="m91.727 37.941c0-0.14453-0.050781-0.27344-0.10547-0.41016-0.027344-0.0625-0.015625-0.14062-0.050782-0.19531-0.007812-0.011719-0.023437-0.019532-0.03125-0.03125-0.007812-0.011719-0.003906-0.027344-0.015624-0.039063l-14.465-20.082c-0.042969-0.058594-0.10938-0.082032-0.16016-0.13281-0.085938-0.082031-0.16406-0.17188-0.27344-0.22656-0.082031-0.042969-0.17578-0.046875-0.26953-0.066407-0.085938-0.019531-0.16406-0.0625-0.25391-0.0625h-52.211c-0.089844 0-0.17188 0.042969-0.25781 0.0625-0.089843 0.019532-0.18359 0.023438-0.26562 0.066407-0.10547 0.050781-0.18359 0.14062-0.26563 0.22266-0.050781 0.050781-0.12109 0.074219-0.16406 0.13672l-14.465 20.082c-0.019531 0.027344-0.015625 0.058594-0.03125 0.085937-0.019531 0.023438-0.050781 0.039063-0.066406 0.066407-0.0625 0.10156-0.050781 0.21875-0.078125 0.33203-0.007813 0.050781-0.03125 0.09375-0.035156 0.14453-0.042969 0.33203 0.003906 0.66406 0.23828 0.92188l38.973 43.242c0.59375 0.77734 1.5391 1.2422 2.5195 1.2422 0.98437 0 1.9258-0.46484 2.4609-1.1719l39.035-43.312c0.21094-0.23438 0.25781-0.55469 0.23047-0.87891zm-41.727-18.32 15.441 17.16h-30.883zm16.328 19.504-16.328 39.914-16.328-39.914zm10.078-18.836 11.879 16.492h-18.48l6.5977-16.492zm-2.0273-1.2461-6.6914 16.727-15.055-16.727zm-42.059 16.727-6.6914-16.727h21.746zm-8.7227-15.48 6.5977 16.492-18.48-0.003906 11.879-16.492zm-11.664 18.836h19.207l15.965 39.027-35.172-39.031zm40.961 39.035 15.969-39.035h19.207z"/>
</svg>