<svg xmlns="http://www.w3.org/2000/svg" data-name="Layer 1" viewBox="0 -10 64 80" x="0px" y="0px"><path d="M4.627,7.045c-.214,.189-.336,.462-.336,.748V28.356c0,9.986,4.191,19.237,11.502,25.382,4.397,3.679,9.76,6.446,15.938,8.223,.09,.026,.183,.039,.276,.039s.187-.013,.277-.039c6.171-1.779,11.528-4.545,15.925-8.224,7.309-6.144,11.5-15.395,11.5-25.381V7.793c0-.286-.123-.559-.336-.748s-.495-.28-.783-.245c-17.362,2.093-25.873-4.514-25.955-4.579-.365-.293-.886-.292-1.252-.002-.084,.067-8.613,6.673-25.972,4.581-.287-.037-.569,.055-.783,.245Zm1.664,1.866c15.06,1.546,23.441-3.154,25.716-4.68,2.272,1.526,10.646,6.225,25.703,4.68V28.356c0,9.394-3.932,18.087-10.785,23.848-4.115,3.443-9.133,6.051-14.917,7.754-5.792-1.702-10.814-4.31-14.929-7.753-6.855-5.763-10.787-14.456-10.787-23.85V8.911Z"/><path d="M33.198,36.627h-2.396c-.844,0-1.53-.686-1.53-1.53,0-.552-.448-1-1-1s-1,.448-1,1c0,1.946,1.583,3.53,3.53,3.53h.198v1.53c0,.552,.448,1,1,1s1-.448,1-1v-1.53h.198c1.947,0,3.53-1.583,3.53-3.53v-.888c0-1.947-1.583-3.53-3.53-3.53h-2.396c-.844,0-1.53-.686-1.53-1.53v-.888c0-.844,.687-1.53,1.53-1.53h2.396c.844,0,1.53,.686,1.53,1.53,0,.552,.448,1,1,1s1-.448,1-1c0-1.946-1.583-3.53-3.53-3.53h-.198v-1.53c0-.552-.448-1-1-1s-1,.448-1,1v1.53h-.198c-1.947,0-3.53,1.583-3.53,3.53v.888c0,1.946,1.583,3.53,3.53,3.53h2.396c.844,0,1.53,.687,1.53,1.53v.888c0,.844-.687,1.53-1.53,1.53Z"/><path d="M32,47.333c8.631,0,15.653-7.022,15.653-15.654s-7.022-15.653-15.653-15.653-15.653,7.022-15.653,15.653,7.022,15.654,15.653,15.654Zm0-29.307c7.528,0,13.653,6.125,13.653,13.653s-6.125,13.654-13.653,13.654-13.653-6.125-13.653-13.654,6.125-13.653,13.653-13.653Z"/></svg>