<svg xmlns="http://www.w3.org/2000/svg" version="1.1" viewBox="-5.0 -10.0 110.0 135.0">
 <path d="m85.465 86.586c-0.125-2.9688-1.5312-5.793-3.8555-7.7578l-3-2.5312v-66.273c0-3.0742-2.4883-5.5703-5.5469-5.5703l-36.418-0.003906c-0.042969 0-0.085937 0.003906-0.12891 0.007812-0.035156 0.003907-0.070313 0.007813-0.10547 0.015625-0.007812 0-0.015625 0.003906-0.023437 0.003906-0.039063 0.007813-0.082031 0.019532-0.12109 0.03125-0.039063 0.011719-0.078125 0.027344-0.11719 0.042969-0.035157 0.015625-0.074219 0.03125-0.10938 0.050781-0.003906 0-0.003906 0.003907-0.007812 0.003907-0.035156 0.019531-0.066406 0.039062-0.097656 0.058593-0.003906 0.003907-0.007813 0.003907-0.007813 0.007813-0.035156 0.023437-0.066406 0.046875-0.097656 0.074219 0 0-0.003906 0-0.003906 0.003906-0.03125 0.027344-0.0625 0.054688-0.09375 0.085938l-20.828 20.938c-0.007813 0.007812-0.015625 0.019531-0.023438 0.027343-0.019531 0.019531-0.039062 0.042969-0.058594 0.0625-0.007812 0.011719-0.015624 0.023438-0.027343 0.035157-0.015625 0.023437-0.035157 0.042968-0.050781 0.066406-0.007813 0.011718-0.011719 0.019531-0.019532 0.03125-0.015625 0.023437-0.03125 0.050781-0.046875 0.078125-0.003906 0.007812-0.007812 0.015625-0.011719 0.023437-0.015624 0.027344-0.027343 0.058594-0.042968 0.089844-0.003906 0.007812-0.003906 0.011719-0.007813 0.019531-0.011719 0.03125-0.023437 0.066407-0.035156 0.097657-0.003906 0.007812-0.003906 0.011718-0.003906 0.019531-0.011719 0.03125-0.019531 0.066406-0.023438 0.10156-0.003906 0.011719-0.003906 0.027344-0.007812 0.039063-0.003907 0.027344-0.011719 0.058594-0.011719 0.085937-0.003906 0.042969-0.007812 0.085938-0.007812 0.12891v59.172c0 3.0742 2.4883 5.5703 5.5508 5.5703h48.469l0.21094 0.25c1.9609 2.3281 4.7852 3.7344 7.7539 3.8594 0.14453 0.007812 0.28516 0.007812 0.42969 0.007812 2.3867 0 4.6055-0.85937 6.1406-2.3945 1.6211-1.625 2.4922-4.0195 2.3828-6.5664zm-50.113-77.715v15.359c0 0.64062-0.51172 1.1602-1.1445 1.1602h-15.285zm-15.273 79.973c-1.6367 0-2.9688-1.3398-2.9688-2.9883v-57.883h17.098c2.0547 0 3.7266-1.6797 3.7266-3.7422v-17.199h35.129c1.6328 0 2.9648 1.3398 2.9648 2.9883v64.105l-8.4102-7.0859c1.7578-3.3516 2.6875-7.1016 2.6875-10.996 0-6.3398-2.4688-12.301-6.9531-16.785-4.4844-4.4844-10.445-6.9531-16.785-6.9531s-12.301 2.4688-16.785 6.9531c-4.4844 4.4844-6.9531 10.445-6.9531 16.785 0 6.3398 2.4688 12.301 6.9531 16.785s10.445 6.9531 16.785 6.9531c3.5938 0 7.0664-0.79688 10.219-2.3008l9.5859 11.363-46.293 0.003906zm26.488-11.648c-5.6523 0-10.965-2.1992-14.961-6.1953-3.9961-3.9961-6.1953-9.3086-6.1953-14.961 0-5.6523 2.1992-10.965 6.1953-14.961 3.9961-3.9961 9.3086-6.1953 14.961-6.1953s10.965 2.1992 14.961 6.1953 6.1953 9.3086 6.1953 14.961c0 5.6523-2.1992 10.965-6.1953 14.961s-9.3086 6.1953-14.961 6.1953zm34.688 14.133c-1.1133 1.1133-2.8008 1.707-4.6289 1.6289-2.2461-0.097656-4.3945-1.1719-5.8906-2.9453l-11.641-13.801c1.5273-0.95313 2.9531-2.082 4.2578-3.3867 1.0977-1.0977 2.0742-2.2852 2.9219-3.543l13.668 11.52c1.7734 1.4961 2.8438 3.6445 2.9414 5.8906 0.078126 1.8281-0.51562 3.5156-1.6328 4.6328zm-17.148-35.961c-1.832-2.9961-4.4219-5.4883-7.4844-7.2031-3.0625-1.7148-6.5391-2.625-10.051-2.625-3.5117 0-6.9922 0.90625-10.055 2.6211-3.0625 1.7188-5.6523 4.207-7.4883 7.2031-0.25391 0.41406-0.25391 0.93359 0 1.3477 1.832 2.9961 4.4219 5.4883 7.4883 7.2031 3.0625 1.7148 6.5391 2.6211 10.055 2.6211 3.5156 0 6.9883-0.90625 10.051-2.625s5.6523-4.207 7.4844-7.2031c0.25391-0.41406 0.25391-0.93359 0-1.3477zm-17.535 8.5938c-5.9492 0-11.59-3.0156-14.906-7.918 3.3164-4.9023 8.9531-7.918 14.906-7.918 5.9492 0 11.582 3.0156 14.898 7.918-3.3164 4.9023-8.9531 7.918-14.898 7.918zm0-14.348c-3.5469 0-6.4297 2.8828-6.4297 6.4297s2.8828 6.4297 6.4297 6.4297c3.5469 0 6.4258-2.8828 6.4258-6.4297s-2.8828-6.4297-6.4258-6.4297zm0 10.277c-2.1211 0-3.8477-1.7266-3.8477-3.8477 0-2.1211 1.7266-3.8477 3.8477-3.8477 2.1211 0 3.8438 1.7266 3.8438 3.8477 0 2.1211-1.7227 3.8477-3.8438 3.8477zm-1.4727-45.461c0-0.71484 0.57812-1.2891 1.2891-1.2891h20.098c0.71484 0 1.2891 0.57812 1.2891 1.2891 0 0.71484-0.57813 1.2891-1.2891 1.2891h-20.098c-0.71484 0-1.2891-0.57812-1.2891-1.2891zm0 8.4648c0-0.71484 0.57812-1.2891 1.2891-1.2891h20.098c0.71484 0 1.2891 0.57812 1.2891 1.2891 0 0.71484-0.57813 1.2891-1.2891 1.2891h-20.098c-0.71484 0-1.2891-0.57812-1.2891-1.2891z"/>
</svg>