<svg xmlns="http://www.w3.org/2000/svg" version="1.1" viewBox="-5.0 -15.0 110.0 135.0">
 <path d="m10.023 5.7109h79.961c2.0273 0 3.8711 0.82812 5.2031 2.1641 1.332 1.332 2.1602 3.1758 2.1602 5.2031v51.859c0 2.0234-0.82812 3.8633-2.1602 5.1953-1.3398 1.3398-3.1836 2.1719-5.2031 2.1719h-29.66l3.4219 9.1992h4.1367c1.1055 0 2 0.89453 2 2v8.7852c0 1.1055-0.89453 2-2 2h-35.762c-1.1055 0-2-0.89453-2-2v-8.7852c0-1.1055 0.89453-2 2-2h4.1367l3.418-9.1992h-29.652c-2.0195 0-3.8633-0.83203-5.1992-2.168-1.3398-1.3281-2.168-3.1719-2.168-5.1992v-51.859c0-2.0273 0.82812-3.8711 2.1641-5.2031l0.13281-0.12109c1.3242-1.2617 3.1133-2.043 5.0742-2.043zm39.977 26.902c1.7656 0 3.3633 0.71875 4.5195 1.8711 1.1562 1.1562 1.8711 2.7578 1.8711 4.5195 0 1.7656-0.71875 3.3633-1.8711 4.5195-1.1562 1.1562-2.7578 1.8711-4.5195 1.8711-1.7656 0-3.3633-0.71875-4.5195-1.8711-1.1562-1.1562-1.8711-2.7578-1.8711-4.5195 0-1.7656 0.71875-3.3633 1.8711-4.5195 1.1562-1.1562 2.7578-1.8711 4.5195-1.8711zm1.6914 4.6992c-0.43359-0.43359-1.0312-0.69922-1.6914-0.69922s-1.2617 0.26562-1.6914 0.69922c-0.43359 0.43359-0.69922 1.0312-0.69922 1.6914s0.26562 1.2617 0.69922 1.6914c0.43359 0.43359 1.0312 0.69922 1.6914 0.69922s1.2617-0.26562 1.6914-0.69922c0.43359-0.43359 0.69922-1.0312 0.69922-1.6914s-0.26562-1.2617-0.69922-1.6914zm-1.6914-15.012c5.7031 0 11.062 1.5273 15.68 4.1953l0.11328 0.070312c4.7266 2.7578 8.6719 6.7109 11.41 11.441 0.37109 0.64453 0.34375 1.4141-0.007813 2.0117-2.7578 4.7617-6.7422 8.7344-11.516 11.492-4.6172 2.6719-9.9766 4.1953-15.68 4.1953s-11.062-1.5273-15.68-4.1953l-0.11328-0.070313c-4.7266-2.7578-8.6719-6.7109-11.41-11.438-0.37109-0.64453-0.34375-1.4141 0.007813-2.0117 2.7578-4.7617 6.7422-8.7383 11.516-11.496 4.6172-2.6719 9.9766-4.1953 15.68-4.1953zm13.68 7.6484c-4.0195-2.3203-8.6914-3.6484-13.68-3.6484s-9.6602 1.3281-13.68 3.6484c-3.8359 2.207-7.0859 5.3281-9.4609 9.0586 2.3555 3.6992 5.5664 6.7969 9.3555 9l0.10938 0.058594c4.0195 2.3203 8.6914 3.6484 13.68 3.6484 4.9883 0 9.6602-1.3281 13.68-3.6484 3.8359-2.207 7.0859-5.3281 9.4609-9.0586-2.3555-3.6992-5.5664-6.7969-9.3555-9zm-1.3203 55.551h-28.242v4.7891h31.762v-4.7891h-3.5234zm-6.2891-13.199h-12.145l-3.418 9.1992h18.984zm33.91-62.594h-79.961c-0.88672 0-1.6953 0.34375-2.2969 0.90625l-0.082031 0.085938c-0.61328 0.61328-0.98828 1.4531-0.98828 2.375v51.859c0 0.92578 0.38281 1.7656 0.98828 2.3789s1.4492 0.98828 2.3789 0.98828h79.957c0.92578 0 1.7695-0.37891 2.375-0.98438 0.60938-0.61328 0.98828-1.4531 0.98828-2.3867v-51.859c0-0.92187-0.38281-1.7656-0.98828-2.375-0.61328-0.61328-1.4531-0.98828-2.375-0.98828z"/>
</svg>