<svg xmlns="http://www.w3.org/2000/svg" version="1.1" viewBox="-5.0 -10.0 110.0 135.0">
 <path d="m94.938 47.844c0.11328 0.53125 0.039062 1.1914 0.042969 1.7383l0.003906 3.6719v9.0742c0 1.5977 0.027344 3.207-0.015625 4.8047-0.007812 0.21875-0.007812 0.47656-0.070312 0.68359-0.12891-0.79688-0.023438-1.8477-0.015626-2.6758l0.015626-4.9961-0.007813-7.6992c-0.003906-1.5273-0.085937-3.082 0.046875-4.6016z"/>
 <path d="m12.406 46.98c0.035156-1.4141-0.125-2.832 0.16406-4.2305 0.35156-1.707 1.4219-3.043 2.8594-3.9922 0.99609-0.65625 2.0938-1.2109 3.125-1.8125l7.1758-4.1523 19.875-11.539 12.547-7.2109c2.0078-1.1484 4.0898-2.6016 6.2422-3.4297 2.1211-0.82031 4.5117-0.97266 6.7305-0.51172 3.25 0.67578 6.0391 2.9805 7.6875 5.8086 1.4492 2.4961 1.8164 5.3906 2.4141 8.1641 0.24219 1.1172 0.56641 2.2266 0.875 3.3242 0.20313 0.72656 0.42188 1.4492 0.64844 2.168 0.23047 0.71875 0.46875 1.4297 0.72266 2.1406 0.25 0.71094 0.51562 1.418 0.78906 2.1211 0.27734 0.69922 0.5625 1.3984 0.85938 2.0898 0.29688 0.69141 0.60938 1.3789 0.92969 2.0625 0.32031 0.67969 0.64844 1.3594 0.99219 2.0312s0.69531 1.3359 1.0586 1.9961c0.36328 0.66016 0.73828 1.3125 1.125 1.9609 0.64453 1.0742 1.3711 2.0898 2.0547 3.1406 0.77344-0.03125 2.8438-0.17969 3.4336 0.27734 0.15234 0.12109 0.19922 0.26953 0.22266 0.45312-0.13281 1.5234-0.054688 3.0781-0.046875 4.6055l0.007813 7.6992-0.015626 4.9961c-0.007812 0.82812-0.11328 1.8789 0.015626 2.6758-0.085938 0.21875-0.19141 0.40234-0.35938 0.56641-0.80859 0.80078-2.2227 0.61719-3.2578 0.60938-0.10156 0.85937-0.082031 1.7109-0.10547 2.5742-0.027343 1.1289-0.070312 2.2578-0.078125 3.3867-0.027344 2.8633-0.11719 5.7266-0.16797 8.5859l-0.089844 3.5625c-0.011719 0.62109 0.023437 1.2617-0.03125 1.8789-0.023438 0.23438-0.066406 0.60156-0.19922 0.79297-0.14062 0.20703-0.57031 0.28516-0.79688 0.30859-0.42969 0.046875-2.6523 0.046875-3.0508-0.011719-0.17578-0.027343-0.36719-0.089843-0.50391-0.21094-0.28516-0.25391-0.29687-0.69141-0.32812-1.0469-0.070313-0.77344-0.03125-1.5703-0.042969-2.3477-0.019531-1.2539-0.050781-2.5078-0.09375-3.7617l-0.37109-13.727c-1.4688-0.082031-2.9492-0.011718-4.4219-0.007812h-8.0586l-13.051-0.003906c-2.1875-0.003906-4.3711-0.054688-6.5586-0.023438-0.27344 0.007813-0.58203-0.003906-0.83984 0.097656-0.23828 0.55078-0.09375 7.6094-0.089844 8.6055 0.003906 2.8047-0.042969 5.6055 0.011718 8.4141 0.51953 0.035156 1.1562-0.089844 1.6172 0.21094 0.17969 0.11328 0.27344 0.28516 0.31641 0.49219 0.089844 0.44141 0.070313 2.0938 0.003906 2.5586-0.023437 0.16797-0.078124 0.33984-0.17969 0.47656-0.18359 0.25-0.42969 0.27344-0.71875 0.30078-0.62109 0.066406-1.2656 0.039063-1.8945 0.035156l-2.9688-0.015624c-0.61719-0.003907-1.2344-0.003907-1.8516 0.007812-0.51562 0.007812-1.0352 0.046875-1.5508 0.015625-0.21875-0.011719-0.83984-0.054687-0.99219-0.20312-0.26953-0.25781-0.28906-0.72656-0.30078-1.0781-0.027343-0.66797-0.14844-2.0469 0.33984-2.5352 0.39453-0.39844 1.2148-0.28516 1.7305-0.27734 0.0625-1.9219 0.003906-3.8633 0.003906-5.7852v-11.27h-12.23l-19.207 0.03125c-0.023438 1.3086-0.10547 2.6172-0.15625 3.9258l-0.27734 7.3398-0.26172 6.2852c-0.039063 0.88281 0 1.7734-0.09375 2.6523-0.019532 0.21094-0.066407 0.44141-0.21094 0.60547-0.17578 0.20312-0.52734 0.23828-0.78125 0.26172-0.69141 0.058594-3.1914 0.14844-3.6133-0.32031-0.16797-0.18359-0.19141-0.58594-0.20703-0.82813-0.078126-0.96484-0.050782-1.9531-0.070313-2.9219l-0.097656-4.8867-0.23828-12.086c-0.72656-0.035156-1.5195 0.13281-2.2266-0.0625-0.47266-0.13281-0.83594-0.45312-1.0664-0.88281-0.11328-0.21484-0.13672-0.41797-0.15625-0.65625-0.10938-1.3516-0.035157-2.7227-0.039063-4.0781-0.003906-0.89453-0.125-4.5352 0.10938-5.2227 0.14844-0.44531 1.5469-0.55078 1.9648-0.66016 0.36719-0.097656 0.71484-0.23047 1.0547-0.40234 2.7578-1.4023 3.4883-4.5078 3.5898-7.3633 0.027344-0.78906-0.10938-1.5977 0.13672-2.3633 0.16406-0.15234 0.3125-0.27734 0.51562-0.37891zm56.117-35.477c-1.4648 0.058594-2.8945 0.32031-4.2305 0.96094-0.9375 0.44922-1.8242 1.0195-2.7266 1.543l-4.418 2.5391-15.848 9.1719-18.863 10.898c-0.89453 0.52344-1.793 1.0391-2.6914 1.5469-1.2227 0.68359-3.4883 1.8164-4.4062 2.793-1.6016 1.7031-1.2852 3.9688-1.2539 6.1133l20.656-0.035156 35.121-0.007812 15 0.019531c1.4414-0.011719 2.8906 0.011719 4.332-0.023437-0.77734-1.2695-1.5742-2.5156-2.2969-3.8164-0.34375-0.61328-0.67578-1.2344-0.99609-1.8594-0.32422-0.625-0.63672-1.2539-0.94141-1.8867-0.30469-0.63281-0.60156-1.2695-0.88672-1.9141-0.28516-0.64062-0.5625-1.2891-0.83203-1.9375-0.26563-0.64844-0.52344-1.3047-0.77344-1.9609-0.25-0.66016-0.48828-1.3203-0.71875-1.9844-0.22656-0.66406-0.44922-1.332-0.66016-2.0039-0.20703-0.66797-0.41016-1.3438-0.60156-2.0195-0.35938-1.2344-0.67188-2.4844-0.94141-3.7422-0.48828-2.3477-0.80078-4.8828-2.0273-6.9844-1.5-2.5742-3.8633-4.457-6.7852-5.1484-0.73438-0.17578-1.457-0.24609-2.2109-0.26172zm19.887 37.215c-2.4297 0.023438-4.8594 0.035156-7.2891 0.023438l-12.07 0.003906-35.086 0.007812-13.492-0.003906c-2.3438-0.003906-4.7148-0.082031-7.0586 0.011719-0.16406 3.0938-0.35156 6.4062-2.8398 8.625-1.1445 1.0234-2.4297 1.5742-3.9062 1.9336-0.023438 2.6758-0.019531 5.3477 0.003906 8.0234 2.6211 0.007812 5.2383 0 7.8594-0.019531l0.003906-2.0078c-0.007812-0.61719-0.16797-2.0859 0.30859-2.5664 0.17969-0.17969 0.5-0.18359 0.74609-0.19922 1-0.070312 2.0508 0.019531 3.0586 0.023438l6.4648 0.015625h54.504c1.332 0 2.6953-0.070313 4.0234 0.003906 0.28906 0.015625 0.57812 0.054688 0.77734 0.28516 0.48047 0.55078 0.16406 3.5469 0.29297 4.4375l5.8359-0.007812c0.94141-0.003906 1.8867-0.035156 2.8281-0.011719 0.058594-0.86328 0.023438-1.75 0.023438-2.6172l0.003906-4.4609c0-3.8203 0.070312-7.6562-0.019532-11.477-1.6484-0.078126-3.3203-0.054688-4.9727-0.023438zm-72.25 15.523c-0.050781 1.0234-0.042968 2.0781 0 3.1016 3.9414 0.050781 7.8867 0.007812 11.828 0.011719l26.016-0.007813 18.949 0.007813c3.3086 0 6.6289 0.054687 9.9336-0.023438l0.12109-0.023437c0.15234-0.50391 0.039063-2.3633 0.035157-3.0156-0.90234-0.089844-1.8398-0.039063-2.7461-0.039063l-4.7852 0.003906h-15.496l-30.211-0.003906c-4.543 0.003906-9.0977-0.082031-13.645-0.011718zm31.383 4.7539-0.015625 12.02c0.003906 1.6797-0.046875 3.3828 0.03125 5.0586 0.67188 0.007812 1.3477 0.007812 2.0234 0 0.41797-0.007813 0.84766-0.046875 1.2617-0.015625v-11.18l0.015625-3.543c0.007813-0.75781 0.066406-1.5547-0.046875-2.3008-1.0586-0.14453-2.1992-0.089844-3.2695-0.039062zm-37.363 0.027344c-0.10156 0.89062 0.019531 2.0352 0.046874 2.9609l0.097657 4.8398 0.17188 8.2656c0.027344 1.0977-0.078125 2.2617 0.054687 3.3516l1.6094 0.007813c0.011719-0.22266 0.015625-0.44922 0.035156-0.66797 0.066407-4.1445 0.28125-8.3438 0.46875-12.484 0.09375-2.082 0.25-4.1875 0.24609-6.2734-0.91016-0.011719-1.8203-0.011719-2.7305 0zm76.895-0.023438c0 2.2617 0.11719 4.5117 0.16797 6.7734l0.28516 12.641c0.39062 0.003907 1.3555 0.078126 1.6797-0.027343l0.015625-0.23438 0.35938-19.156c-0.83203-0.011719-1.6758-0.039063-2.5078 0.003906zm-41.527 18.707-0.007813 0.79688 7.2461 0.015625c0.003906-0.26953 0.011719-0.53906-0.015625-0.80859-2.3984-0.050782-4.8281-0.058594-7.2227-0.003907z"/>
</svg>