<svg xmlns="http://www.w3.org/2000/svg" version="1.1" viewBox="-5.0 -10.0 110.0 135.0">
 <g>
  <path d="m36.484 55.297v5.1562c0 0.86328 0.69922 1.5625 1.5625 1.5625s1.5625-0.69922 1.5625-1.5625v-5.1562c0-0.86328-0.69922-1.5625-1.5625-1.5625s-1.5625 0.69922-1.5625 1.5625z"/>
  <path d="m60.391 55.297v5.1562c0 0.86328 0.69922 1.5625 1.5625 1.5625s1.5625-0.69922 1.5625-1.5625v-5.1562c0-0.86328-0.69922-1.5625-1.5625-1.5625s-1.5625 0.69922-1.5625 1.5625z"/>
  <path d="m25.922 46.75c0.41406 0 0.8125-0.16406 1.1055-0.45703 0.29297-0.29297 0.45703-0.69141 0.45703-1.1055v-2.5625c0.007813-5.5195 4.4805-9.9922 10-10h25.016c5.5195 0.007812 9.9922 4.4805 10 10v2.5625c0 0.86328 0.69922 1.5625 1.5625 1.5625s1.5625-0.69922 1.5625-1.5625v-2.5625c-0.007812-7.2461-5.8789-13.117-13.125-13.125h-3.4531c3.2578-2.5312 5.3086-6.3086 5.6523-10.422 0.34375-4.1094-1.0508-8.1758-3.8438-11.215-2.793-3.0352-6.7305-4.7617-10.855-4.7617s-8.0625 1.7266-10.855 4.7617c-2.793 3.0391-4.1875 7.1055-3.8438 11.215 0.34375 4.1133 2.3945 7.8906 5.6523 10.422h-3.4531c-7.2461 0.007812-13.117 5.8789-13.125 13.125v2.5625c0 0.85547 0.69141 1.5547 1.5469 1.5625zm12.5-28.875c0-4.707 2.8359-8.9492 7.1875-10.746 4.3477-1.7969 9.3516-0.79297 12.676 2.543 3.3203 3.3359 4.3008 8.3438 2.4883 12.684-1.8125 4.3438-6.0664 7.1641-10.773 7.1445-6.418-0.007812-11.617-5.207-11.625-11.625z"/>
  <path d="m62.766 80.594 10.5-10.281c0.42969-0.41406 0.58594-1.0352 0.40234-1.6055-0.17969-0.56641-0.67188-0.98047-1.2617-1.0664l-14.516-2.0156-6.4844-13.188c-0.26172-0.53906-0.80859-0.88281-1.4062-0.88281s-1.1445 0.34375-1.4062 0.88281l-6.4062 13.188-14.516 2.1094c-0.56641 0.085937-1.0391 0.47266-1.2344 1.0117-0.19531 0.53516-0.082031 1.1367 0.29688 1.5664l10.5 10.234-2.4844 14.453c-0.11328 0.59766 0.12891 1.207 0.625 1.5625 0.26953 0.19531 0.58984 0.29688 0.92188 0.29688 0.25 0 0.5-0.0625 0.71875-0.1875l12.984-6.7969 12.984 6.8125c0.50391 0.24609 1.0977 0.20312 1.5625-0.10938 0.49609-0.35547 0.73828-0.96484 0.625-1.5625zm-12.031 6.125c-0.46094-0.24609-1.0078-0.24609-1.4688 0l-10.938 5.7344 2.0781-12.141c0.082031-0.50391-0.085938-1.0195-0.45312-1.375l-8.7031-8.625 12.203-1.7656c0.50781-0.078125 0.94531-0.39844 1.1719-0.85938l5.375-11.031 5.4531 11.047c0.22656 0.46094 0.66406 0.78125 1.1719 0.85938l12.203 1.75-8.8281 8.625c-0.36719 0.35547-0.53516 0.87109-0.45312 1.375l2.0781 12.141z"/>
  <path d="m33.672 85.734-8.9219-4.6875c-0.46094-0.24609-1.0078-0.24609-1.4688 0l-9.1406 4.7969 1.75-10.188c0.082031-0.50391-0.085937-1.0195-0.45312-1.375l-7.3906-7.2188 10.219-1.5625c0.51172-0.066406 0.95312-0.38281 1.1875-0.84375l4.5625-9.2656 4.5625 9.2656c0.18359 0.48828 0.60156 0.85156 1.1094 0.96875l0.5 0.078125c0.78516 0.11328 1.5312-0.37891 1.7344-1.1445s-0.19922-1.5664-0.9375-1.8555l-5.625-11.422c-0.26172-0.53906-0.80859-0.88281-1.4062-0.88281s-1.1445 0.34375-1.4062 0.88281l-5.5938 11.375-12.5 1.8281c-0.58594 0.082031-1.0742 0.48828-1.2656 1.0469-0.16797 0.55469-0.019531 1.1523 0.39062 1.5625l9.0938 8.8438-2.1562 12.5c-0.074219 0.45703 0.058594 0.92188 0.35938 1.2695 0.30078 0.35156 0.74219 0.55078 1.2031 0.54297 0.25391 0.003906 0.50781-0.054688 0.73438-0.17188l11.219-5.9062 8.1875 4.3281c0.76562 0.40625 1.7109 0.11719 2.1172-0.64844 0.40625-0.76562 0.11719-1.7109-0.64844-2.1172z"/>
  <path d="m96.875 65.484c-0.19141-0.55859-0.67969-0.96484-1.2656-1.0469l-12.5-1.8281-5.5938-11.375c-0.26172-0.53906-0.80859-0.88281-1.4062-0.88281s-1.1445 0.34375-1.4062 0.88281l-5.625 11.422c-0.65234 0.31641-1.0039 1.043-0.84375 1.75 0.16016 0.71094 0.78906 1.2148 1.5156 1.2188h0.5625c0.50391-0.074219 0.94141-0.38672 1.1719-0.84375l4.5625-9.2656 4.5625 9.2656c0.23438 0.46094 0.67578 0.77734 1.1875 0.84375l10.219 1.5625-7.3906 7.2188c-0.36719 0.35547-0.53516 0.87109-0.45312 1.375l1.7656 10.062-9.2188-4.8125c-0.46094-0.24609-1.0078-0.24609-1.4688 0l-8.9219 4.6875c-0.76562 0.40625-1.0547 1.3516-0.64844 2.1172 0.40625 0.76562 1.3516 1.0547 2.1172 0.64844l8.1875-4.3281 11.219 5.9062c0.53125 0.28125 1.1758 0.23047 1.6562-0.125 0.49609-0.35547 0.73828-0.96484 0.625-1.5625l-2.1562-12.5 9.0781-8.8438c0.42969-0.38672 0.61328-0.98438 0.46875-1.5469z"/>
 </g>
</svg>