<svg xmlns="http://www.w3.org/2000/svg" version="1.1" viewBox="-5.0 -10.0 110.0 135.0">
 <path d="m30.547 26.324c0-5.2578-4.2109-9.5391-9.3867-9.5391-5.1758 0-9.3867 4.2773-9.3867 9.5391 0 5.2578 4.2109 9.5391 9.3867 9.5391 5.1758 0 9.3867-4.2773 9.3867-9.5391zm-15.652 0c0-3.5352 2.8086-6.4141 6.2617-6.4141s6.2617 2.875 6.2617 6.4141c0 3.5352-2.8086 6.4141-6.2617 6.4141s-6.2617-2.875-6.2617-6.4141z"/>
 <path d="m74.836 43.59c-6.4375 0-11.672 5.3242-11.672 11.867s5.2344 11.867 11.672 11.867 11.672-5.3242 11.672-11.867-5.2344-11.867-11.672-11.867zm0 20.605c-4.7109 0-8.5469-3.9219-8.5469-8.7422s3.8359-8.7422 8.5469-8.7422c4.7109 0 8.5469 3.9219 8.5469 8.7422s-3.8359 8.7422-8.5469 8.7422z"/>
 <path d="m74.836 33.023c-12.152 0-22.039 10.062-22.039 22.434 0 13.258 12.484 27.57 18.207 33.438h-55.844c-4.9102 0-8.9062-3.9961-8.9062-8.9062 0-2.3828 0.92578-4.6172 2.6172-6.2891 1.6758-1.6758 3.9102-2.6016 6.2891-2.6016h25.309c5.0117 0 9.0859-4.082 9.0859-9.1016 0-2.4219-0.94531-4.6992-2.668-6.4219-1.7227-1.7188-4-2.668-6.418-2.668h-15.504c4.8203-5.0352 14.227-16.191 14.227-26.582 0-10.117-8.0898-18.348-18.035-18.348-9.9414 0-18.031 8.2305-18.031 18.348 0 13.672 16.285 28.676 16.98 29.309 0.29688 0.27344 0.67578 0.40625 1.0547 0.40625 0.046875 0 0.09375-0.023437 0.14062-0.023437 0.03125 0 0.058594 0.019531 0.089844 0.019531h19.082c1.5859 0 3.0781 0.62109 4.2109 1.75 1.1289 1.1289 1.75 2.625 1.75 4.2109 0 3.2969-2.6719 5.9766-5.9609 5.9766h-25.312c-3.2148 0-6.2344 1.25-8.4961 3.5117-2.2812 2.2617-3.5352 5.2812-3.5352 8.5039 0 6.6328 5.3984 12.031 12.031 12.031h59.652s0.015625 0.003907 0.019531 0.003907c0.19922 0 0.39844-0.046876 0.58594-0.12109 0.070312-0.03125 0.12891-0.078125 0.19531-0.11719 0.09375-0.054687 0.1875-0.09375 0.26953-0.16797 0.85547-0.78125 20.988-19.328 20.988-36.16 0-12.371-9.8867-22.434-22.039-22.434zm-68.586-6.6992c0-8.3945 6.6875-15.223 14.906-15.223s14.91 6.8281 14.91 15.223c0 10.414-11.352 22.465-14.91 25.984-3.5586-3.5195-14.906-15.559-14.906-25.984zm68.586 61.973c-4.1211-4.0391-18.914-19.477-18.914-32.844 0-10.645 8.4844-19.309 18.914-19.309 10.43 0 18.914 8.6602 18.914 19.309 0 13.367-14.793 28.801-18.914 32.844z"/>
</svg>