<svg xmlns="http://www.w3.org/2000/svg" version="1.1" viewBox="-5.0 -10.0 110.0 135.0">
 <path d="m86.547 19.57h-16.539v-1.7461c0-3.6016-3.4023-6.5273-7.5859-6.5273h-24.844c-4.1719 0-7.5625 2.9297-7.5625 6.5273v1.7461h-16.559c-4.3477 0-7.8828 3.5352-7.8828 7.8828v19.617c0 0.78906 0.64062 1.4297 1.4258 1.4297h1.5352v33.254c0 2.6992 2.207 4.8984 4.9219 4.8984h30.566v0.625c0 0.78906 0.64062 1.4297 1.4297 1.4297h9.0977c0.78906 0 1.4297-0.64062 1.4297-1.4297v-0.625h30.566c2.7148 0 4.9219-2.1953 4.9219-4.8984l-0.003906-33.258h1.5352c0.78906 0 1.4297-0.64062 1.4297-1.4297v-19.613c0-4.3477-3.5352-7.8828-7.8828-7.8828zm-53.676-1.7461c0-2.0273 2.1094-3.6719 4.707-3.6719h24.844c2.5625 0 4.7305 1.6797 4.7305 3.6719v1.7461h-2.043c-0.45312 0-0.87891 0.21484-1.1484 0.57422l-1.5391 2.0664-24.848 0.003906-1.5391-2.0664c-0.26953-0.36328-0.69531-0.57422-1.1445-0.57422l-2.0195-0.003907zm-19.418 65.973c-1.1367 0-2.0625-0.91797-2.0625-2.043v-33.258h0.73438c0.62109 2.1445 2.6016 3.7227 4.9453 3.7227 2.3555 0 4.3438-1.5781 4.9688-3.7227h4.4766c-0.44141 1.1094-0.81641 2.2461-1.0977 3.4062h-4.8164c-0.78906 0-1.4297 0.64062-1.4297 1.4297v9.0977c0 0.78906 0.64062 1.4297 1.4297 1.4297h4.8125c0.60547 2.5312 1.6016 4.9375 2.9688 7.1797l-3.3945 3.3984c-0.55859 0.55859-0.55859 1.4648 0 2.0195l6.4336 6.4336c0.55859 0.55859 1.4609 0.55859 2.0195 0l3.3984-3.3945c2.2266 1.3633 4.6328 2.3555 7.1797 2.9688v1.3359zm5.9375-36.727c0 1.2656-1.0391 2.2969-2.3164 2.2969-1.2656 0-2.2969-1.0312-2.2969-2.2969v-6.8242h4.6133zm33.73 38.777h-6.2422v-4.5391c0-0.6875-0.48438-1.2734-1.1562-1.4023-2.9844-0.57031-5.7695-1.7227-8.2734-3.4219-0.57031-0.38672-1.3281-0.3125-1.8125 0.17578l-3.1992 3.1992-4.4141-4.4141 3.1992-3.1992c0.48438-0.48047 0.55859-1.2383 0.17578-1.8086-1.707-2.5273-2.8555-5.3125-3.4219-8.2695-0.12891-0.67578-0.71875-1.1602-1.4023-1.1602h-4.5391v-6.2422h4.5391c0.6875 0 1.2773-0.48438 1.4023-1.1602 0.55859-2.9336 1.7109-5.7188 3.4258-8.2773 0.37891-0.56641 0.30469-1.3203-0.17969-1.8047l-3.1992-3.1992 4.4141-4.4102 3.1992 3.1992c0.48047 0.48047 1.2383 0.55859 1.8047 0.17578 2.5586-1.7109 5.3438-2.8633 8.2773-3.4258 0.67578-0.12891 1.1602-0.71484 1.1602-1.4023v-4.5391h6.2422v4.5391c0 0.6875 0.48438 1.2734 1.1602 1.4023 2.9609 0.56641 5.7422 1.7188 8.2695 3.4219 0.56641 0.38281 1.3242 0.30859 1.8086-0.17188l3.2031-3.1992 4.4102 4.4102-3.2031 3.1992c-0.48438 0.48828-0.55469 1.25-0.16797 1.8164 1.6836 2.4688 2.8398 5.25 3.4375 8.2734 0.13281 0.66797 0.71875 1.1523 1.3984 1.1523h4.5195v6.2422h-4.5195c-0.68359 0-1.2695 0.48047-1.3984 1.1523-0.59766 3.0234-1.7539 5.8047-3.4375 8.2734-0.38672 0.56641-0.31641 1.332 0.16797 1.8164l3.2031 3.1992-4.4102 4.4141-3.2031-3.1992c-0.48438-0.48437-1.2461-0.55859-1.8125-0.17187-2.4805 1.6914-5.2617 2.8438-8.2656 3.4141-0.67578 0.12891-1.1602 0.71875-1.1602 1.4023zm35.488-4.0938c0 1.125-0.92578 2.043-2.0625 2.043h-30.57v-1.332c2.5625-0.61328 4.9688-1.6055 7.1836-2.9688l3.3945 3.3945c0.55859 0.55859 1.4648 0.55859 2.0195-0.003906l6.4336-6.4336c0.26953-0.26953 0.41797-0.62891 0.41797-1.0117 0-0.37891-0.14844-0.74219-0.41797-1.0078l-3.3945-3.3945c1.3555-2.2031 2.3555-4.6094 2.9805-7.1797h4.7969c0.78906 0 1.4297-0.64062 1.4297-1.4297v-9.0977c0-0.78906-0.64062-1.4297-1.4297-1.4297h-4.7969c-0.28516-1.1719-0.66016-2.3047-1.1016-3.4062h4.4648c0.625 2.1445 2.6133 3.7227 4.9688 3.7227 2.3477 0 4.3242-1.5781 4.9453-3.7227h0.73438zm-3.3867-34.684c0 1.2656-1.0312 2.2969-2.2969 2.2969-1.2773 0-2.3164-1.0312-2.3164-2.2969v-6.8242h4.6133zm6.3477-1.4297h-3.4922v-6.8242c0-0.78906-0.64062-1.4297-1.4297-1.4297h-7.4727c-0.78906 0-1.4297 0.64062-1.4297 1.4297v6.8242h-5.625c-0.17188-0.30859-0.33203-0.61719-0.51562-0.91797l3.3945-3.3945c0.26953-0.26953 0.41797-0.63281 0.41797-1.0117s-0.14844-0.74219-0.41797-1.0117l-6.4336-6.4336c-0.55859-0.55859-1.4609-0.55859-2.0195-0.003906l-3.3984 3.3984c-2.2383-1.3672-4.6445-2.3594-7.1797-2.9688l0.007812-4.8086c0-0.78906-0.63672-1.4297-1.4297-1.4297l-9.0977 0.003906c-0.78906 0-1.4297 0.64062-1.4297 1.4297v4.8125c-2.5156 0.60547-4.918 1.6016-7.1758 2.9727l-3.3984-3.3984c-0.55859-0.55859-1.4648-0.55859-2.0195 0l-6.4336 6.4336c-0.55859 0.55859-0.55859 1.4609 0 2.0195l3.3984 3.3984c-0.17969 0.30078-0.33984 0.60938-0.50781 0.91016h-5.6406v-6.8242c0-0.78906-0.64063-1.4297-1.4297-1.4297h-7.4688c-0.78906 0-1.4297 0.64062-1.4297 1.4297v6.8242h-3.4844v-18.188c0-2.7695 2.2539-5.0273 5.0273-5.0273h20.719l1.5391 2.0703c0.26953 0.35938 0.69531 0.57422 1.1445 0.57422h26.281c0.44922 0 0.87891-0.21484 1.1445-0.57812l1.5391-2.0703h20.719c2.7695 0 5.0273 2.2578 5.0273 5.0273zm-40.016-0.32812c0-3.0352-1.8203-5.7305-4.6367-6.8672-0.44141-0.17969-0.94141-0.125-1.3359 0.14063-0.39453 0.26562-0.62891 0.71094-0.62891 1.1836v3.4062l-0.8125 0.46875-0.81641-0.46875v-3.4062c0-0.47266-0.23438-0.91797-0.62891-1.1836-0.39453-0.26563-0.89453-0.31641-1.3359-0.14063-2.8164 1.1367-4.6367 3.832-4.6367 6.8672 0 2.6836 1.4883 5.1641 3.7852 6.4648v12.215c-2.3008 1.2969-3.7852 3.7812-3.7852 6.4648 0 3.0312 1.8203 5.7305 4.6367 6.8672 0.17578 0.070312 0.35547 0.10156 0.53516 0.10156 0.28125 0 0.55859-0.082031 0.80078-0.24219 0.39453-0.26562 0.62891-0.71094 0.62891-1.1836v-3.4062l0.81641-0.47266 0.8125 0.47266v3.4062c0 0.47656 0.23438 0.91797 0.62891 1.1836s0.89453 0.31641 1.3359 0.14062c2.8164-1.1406 4.6367-3.8359 4.6367-6.8672 0-2.7344-1.457-5.1797-3.7852-6.4688l-0.003906-12.207c2.332-1.2891 3.7891-3.7344 3.7891-6.4688zm-5.7383 20.906c1.75 0.68359 2.8789 2.3438 2.8789 4.2344 0 1-0.32422 1.9375-0.89062 2.7031v-1.3945c0-0.51172-0.27344-0.98438-0.71484-1.2383l-2.2422-1.2891c-0.44141-0.25391-0.98438-0.25391-1.4258 0l-2.2422 1.2891c-0.44141 0.25391-0.71484 0.72656-0.71484 1.2383v1.3945c-0.56641-0.76562-0.89062-1.7031-0.89062-2.7031 0-1.8555 1.1562-3.5586 2.8828-4.2344 0.54688-0.21484 0.90625-0.74219 0.90625-1.3281v-14.012c0-0.58984-0.35938-1.1133-0.90625-1.3281-1.7266-0.67969-2.8828-2.3828-2.8828-4.2344 0-1 0.32422-1.9375 0.89062-2.7031v1.3945c0 0.51172 0.27344 0.98438 0.71484 1.2383l2.2422 1.2891c0.4375 0.25391 0.98438 0.25391 1.4258 0l2.2422-1.2891c0.44141-0.25391 0.71484-0.73047 0.71484-1.2383v-1.3906c0.56641 0.76562 0.89062 1.7031 0.89062 2.7031 0 1.8906-1.1289 3.5508-2.8789 4.2344-0.54688 0.21484-0.90625 0.74219-0.90625 1.332v14.008c0 0.58203 0.35938 1.1094 0.90625 1.3242zm12.457 11.207c2.7578 0 5.0039-2.2422 5.0039-5.0039v-7.5547c0-0.57422-0.34375-1.0938-0.875-1.3164-0.12109-0.054687-0.24609-0.1875-0.24609-0.375 0-0.16406 0.125-0.30469 0.24609-0.35547 0.53125-0.22266 0.875-0.74219 0.875-1.3164v-1.9453c0-0.78906-0.64062-1.4297-1.4297-1.4297h-2.1445v-10.469l1.9609-2.418c0.26953-0.32813 0.37891-0.76172 0.29688-1.1758l-0.89063-4.5703c-0.13281-0.67188-0.71875-1.1562-1.4023-1.1562h-2.8164c-0.68359 0-1.2695 0.48438-1.4023 1.1562l-0.89062 4.5703c-0.082032 0.42188 0.03125 0.85938 0.30469 1.1875l1.9766 2.4102v10.465h-2.168c-0.78906 0-1.4258 0.64062-1.4258 1.4297l0.003906 1.9414c0 0.57422 0.34375 1.0938 0.87109 1.3164 0.12109 0.050782 0.24609 0.19141 0.24609 0.35547 0 0.1875-0.125 0.32422-0.24609 0.375-0.52734 0.22266-0.87109 0.73828-0.87109 1.3164v7.5547c0 2.7617 2.2539 5.0078 5.0234 5.0078zm-0.24219-36.23h0.46094l0.53516 2.7578-0.75391 0.92578-0.77344-0.93359zm-1.9258 24.445c0.70312-0.60938 1.1211-1.5 1.1211-2.4648 0-0.82812-0.31641-1.6055-0.85547-2.1914h3.7852c-0.53906 0.58594-0.85547 1.3633-0.85547 2.1914 0 0.96484 0.41797 1.8555 1.1211 2.4648v6.7812c0 1.1836-0.96484 2.1484-2.1445 2.1484-1.1953 0-2.1719-0.96484-2.1719-2.1484z"/>
</svg>