<svg xmlns="http://www.w3.org/2000/svg" xmlns:xlink="http://www.w3.org/1999/xlink" version="1.1" x="0px" y="0px" viewBox="0 -40 450 562.5" style="enable-background:new 0 0 450 450;" xml:space="preserve"><g><g><path d="M331.8,357.4H238c-2.8,0-5-2.2-5-5c0-14.6-11.9-26.5-26.5-26.5s-26.5,11.9-26.5,26.5c0,2.8-2.2,5-5,5h-22    c-7.1,0-12.8-5.7-12.8-12.8V209c0-7.1,5.7-12.8,12.8-12.8h29.2c2.8,0,5,2.2,5,5s-2.2,5-5,5h-29.2c-1.5,0-2.8,1.3-2.8,2.8v135.5    c0,1.5,1.3,2.8,2.8,2.8h17.4c2.4-17.8,17.7-31.5,36.2-31.5s33.7,13.7,36.2,31.5h84.2V209c0-1.5-1.3-2.8-2.8-2.8h-29.2    c-2.8,0-5-2.2-5-5s2.2-5,5-5H324c7.1,0,12.8,5.7,12.8,12.8v143.3C336.8,355.1,334.6,357.4,331.8,357.4z"/></g><g><path d="M238.5,286.2c-3.7,0-7.4-1.4-10.3-4.2c-0.2-0.2-0.4-0.5-0.6-0.7c-3.3-4.8-7.4-10.4-11.8-16.4    c-19.3-26.3-43.4-59-43.4-84.4c0-36.4,29.6-66,66-66c36.4,0,66,29.6,66,66c0,25.3-24.1,58.1-43.4,84.4    c-4.4,5.9-8.5,11.6-11.8,16.4c-0.2,0.3-0.4,0.5-0.6,0.7C245.9,284.8,242.2,286.2,238.5,286.2z M245.2,278.4L245.2,278.4    L245.2,278.4z M235.6,275.2c1.7,1.4,4.1,1.4,5.8,0c3.3-4.8,7.4-10.4,11.7-16.2c17.5-23.8,41.4-56.4,41.4-78.5    c0-30.9-25.1-56-56-56s-56,25.1-56,56c0,22.1,23.9,54.7,41.4,78.5C228.2,264.8,232.2,270.3,235.6,275.2z"/></g><g><path d="M238.5,226.9c-24.2,0-43.9-19.7-43.9-43.9s19.7-43.9,43.9-43.9s43.9,19.7,43.9,43.9S262.7,226.9,238.5,226.9z     M238.5,149.2c-18.7,0-33.9,15.2-33.9,33.9s15.2,33.9,33.9,33.9s33.9-15.2,33.9-33.9S257.2,149.2,238.5,149.2z"/></g><g><path d="M419.9,357.4h-12.5c-2.8,0-5-2.2-5-5s2.2-5,5-5h7.5v-45.1c0-8.8-7.2-16-16-16h-67.1c-2.8,0-5-2.2-5-5s2.2-5,5-5h67.1    c14.3,0,26,11.7,26,26v50.1C424.9,355.1,422.7,357.4,419.9,357.4z M344.4,357.4h-12.5c-2.8,0-5-2.2-5-5s2.2-5,5-5h12.5    c2.8,0,5,2.2,5,5S347.1,357.4,344.4,357.4z"/></g><g><path d="M398.9,286.2c-2.1,0-4-1.3-4.7-3.4l-13.6-39.1c-0.9-2.6,0.5-5.5,3.1-6.4c2.6-0.9,5.5,0.5,6.4,3.1l13.6,39.1    c0.9,2.6-0.5,5.5-3.1,6.4C400,286.1,399.4,286.2,398.9,286.2z M331.8,286.2c-2.8,0-5-2.2-5-5v-39.1c0-2.8,2.2-5,5-5s5,2.2,5,5    v39.1C336.8,284,334.6,286.2,331.8,286.2z"/></g><g><path d="M394.9,247.1h-63.1c-2.8,0-5-2.2-5-5s2.2-5,5-5h58c-1.9-6.1-7.5-10.5-14.2-10.5h-43.8c-2.8,0-5-2.2-5-5s2.2-5,5-5h43.8    c13.7,0,24.9,11.2,24.9,24.9C400.5,244.5,398,247.1,394.9,247.1z"/></g><g><path d="M375.9,388.9c-20.1,0-36.5-16.4-36.5-36.5s16.4-36.5,36.5-36.5s36.5,16.4,36.5,36.5S396,388.9,375.9,388.9z M375.9,325.9    c-14.6,0-26.5,11.9-26.5,26.5s11.9,26.5,26.5,26.5s26.5-11.9,26.5-26.5S390.5,325.9,375.9,325.9z"/></g><g><path d="M206.5,388.9c-20.1,0-36.5-16.4-36.5-36.5s16.4-36.5,36.5-36.5s36.5,16.4,36.5,36.5S226.6,388.9,206.5,388.9z     M206.5,325.9c-14.6,0-26.5,11.9-26.5,26.5s11.9,26.5,26.5,26.5S233,367,233,352.4S221.1,325.9,206.5,325.9z"/></g><g><path d="M206.5,367.6c-8.4,0-15.2-6.8-15.2-15.2s6.8-15.2,15.2-15.2s15.2,6.8,15.2,15.2S214.9,367.6,206.5,367.6z M206.5,347.1    c-2.9,0-5.2,2.4-5.2,5.2s2.4,5.2,5.2,5.2s5.2-2.4,5.2-5.2S209.3,347.1,206.5,347.1z"/></g><g><path d="M375.9,367.6c-8.4,0-15.2-6.8-15.2-15.2s6.8-15.2,15.2-15.2s15.2,6.8,15.2,15.2S384.3,367.6,375.9,367.6z M375.9,347.1    c-2.9,0-5.2,2.4-5.2,5.2s2.4,5.2,5.2,5.2s5.2-2.4,5.2-5.2S378.8,347.1,375.9,347.1z"/></g><g><g><path d="M319,388.9H30.6c-2.8,0-5-2.2-5-5s2.2-5,5-5H319c2.8,0,5,2.2,5,5S321.7,388.9,319,388.9z"/></g><g><path d="M319,72.6H30.6c-2.8,0-5-2.2-5-5s2.2-5,5-5H319c2.8,0,5,2.2,5,5S321.7,72.6,319,72.6z"/></g><g><path d="M203.1,44.2h-56.7c-2.8,0-5-2.2-5-5s2.2-5,5-5h56.7c2.8,0,5,2.2,5,5S205.9,44.2,203.1,44.2z"/></g><g><path d="M174.8,426.9c-7.8,0-14.1-6.3-14.1-14.1s6.3-14.1,14.1-14.1s14.1,6.3,14.1,14.1S182.6,426.9,174.8,426.9z M174.8,408.7     c-2.3,0-4.1,1.9-4.1,4.1s1.9,4.1,4.1,4.1c2.3,0,4.1-1.9,4.1-4.1S177.1,408.7,174.8,408.7z"/></g><g><path d="M284.4,446.7H65.1c-21.8,0-39.5-17.7-39.5-39.5v-363c0-21.8,17.7-39.5,39.5-39.5h219.3c21.8,0,39.5,17.7,39.5,39.5v157     c0,2.8-2.2,5-5,5s-5-2.2-5-5v-157c0-16.3-13.2-29.5-29.5-29.5H65.1c-16.3,0-29.5,13.2-29.5,29.5v363c0,16.3,13.2,29.5,29.5,29.5     h219.3c16.3,0,29.5-13.2,29.5-29.5v-54.9c0-2.8,2.2-5,5-5s5,2.2,5,5v54.9C324,429,306.2,446.7,284.4,446.7z"/></g></g><g><path d="M129.5,225.4H80.3c-2.8,0-5-2.2-5-5s2.2-5,5-5h49.2c2.8,0,5,2.2,5,5S132.3,225.4,129.5,225.4z"/></g><g><path d="M122.3,253.6H73.1c-2.8,0-5-2.2-5-5s2.2-5,5-5h49.2c2.8,0,5,2.2,5,5S125.1,253.6,122.3,253.6z"/></g><g><path d="M115.1,281.8H65.9c-2.8,0-5-2.2-5-5s2.2-5,5-5h49.2c2.8,0,5,2.2,5,5S117.9,281.8,115.1,281.8z"/></g><g><path d="M122.3,310H73.1c-2.8,0-5-2.2-5-5s2.2-5,5-5h49.2c2.8,0,5,2.2,5,5S125.1,310,122.3,310z"/></g><g><path d="M129.5,338.2H80.3c-2.8,0-5-2.2-5-5s2.2-5,5-5h49.2c2.8,0,5,2.2,5,5S132.3,338.2,129.5,338.2z"/></g></g></svg>