<svg xmlns="http://www.w3.org/2000/svg" data-name="Layer 1" viewBox="0 0 64 80" x="0px" y="0px"><path d="M61.483,33.691c.09-.3,.034-.624-.151-.876l-5.954-8.137c-.02-.027-.048-.044-.07-.068-.032-.036-.064-.068-.102-.1-.068-.057-.142-.102-.222-.138-.022-.01-.037-.029-.06-.038l-18.05-6.77v-3.048h4.577c.396,0,.754-.233,.914-.595,.161-.362,.092-.784-.173-1.077L32.662,2.329c-.189-.209-.458-.329-.741-.329s-.551,.119-.741,.329l-9.532,10.515c-.266,.293-.334,.715-.173,1.077,.16,.361,.519,.595,.914,.595h4.568v3.107l-17.883,6.711c-.025,.009-.042,.03-.066,.041-.077,.036-.148,.078-.214,.134-.038,.032-.071,.065-.104,.102-.022,.024-.049,.041-.069,.067l-5.954,8.137c-.185,.252-.241,.577-.151,.876,.089,.3,.314,.541,.607,.65l5.301,1.988v16.212c0,.417,.259,.79,.649,.937l22.576,8.459c.009,.003,.018,.002,.027,.005,.105,.036,.214,.059,.325,.059s.219-.022,.325-.059c.009-.003,.018-.002,.027-.005l22.576-8.459c.39-.146,.649-.52,.649-.937v-16.212l5.301-1.988c.293-.11,.518-.351,.607-.65ZM24.646,12.515l7.275-8.026,7.275,8.026h-3.321c-.552,0-1,.448-1,1v12.2h-5.918V13.515c0-.552-.448-1-1-1h-3.312Zm3.312,15.2h7.918c.552,0,1-.448,1-1v-7.016l14.846,5.568-19.722,7.395-19.723-7.396,14.681-5.509v6.957c0,.552,.448,1,1,1Zm-18.17-1.245l20.622,7.733-4.728,6.461-20.622-7.733,4.728-6.461Zm.637,10.609l15.265,5.724c.115,.043,.233,.063,.351,.063,.312,0,.615-.146,.808-.41l4.152-5.675v22.775l-20.576-7.71v-14.769Zm43.151,14.769l-20.576,7.71v-22.775l4.152,5.675c.192,.263,.495,.41,.808,.41,.117,0,.236-.021,.351-.063l15.265-5.724v14.769Zm-15.257-11.184l-4.728-6.461,20.622-7.733,4.728,6.461-20.622,7.733Z"/></svg>